# SPDX-FileCopyrightText: 2026 Lampway contributors
# SPDX-License-Identifier: GPL-3.0-or-later
# one shell, two parts; the ring at z=1.20 is duplicated (UV-split)
v 0.120000000 0.000000000 0.950000000
v 0.117694234 0.023410839 0.950000000
v 0.110865544 0.045922012 0.950000000
v 0.099776353 0.066668428 0.950000000
v 0.084852814 0.084852814 0.950000000
v 0.066668428 0.099776353 0.950000000
v 0.045922012 0.110865544 0.950000000
v 0.023410839 0.117694234 0.950000000
v 0.000000000 0.120000000 0.950000000
v -0.023410839 0.117694234 0.950000000
v -0.045922012 0.110865544 0.950000000
v -0.066668428 0.099776353 0.950000000
v -0.084852814 0.084852814 0.950000000
v -0.099776353 0.066668428 0.950000000
v -0.110865544 0.045922012 0.950000000
v -0.117694234 0.023410839 0.950000000
v -0.120000000 0.000000000 0.950000000
v -0.117694234 -0.023410839 0.950000000
v -0.110865544 -0.045922012 0.950000000
v -0.099776353 -0.066668428 0.950000000
v -0.084852814 -0.084852814 0.950000000
v -0.066668428 -0.099776353 0.950000000
v -0.045922012 -0.110865544 0.950000000
v -0.023410839 -0.117694234 0.950000000
v -0.000000000 -0.120000000 0.950000000
v 0.023410839 -0.117694234 0.950000000
v 0.045922012 -0.110865544 0.950000000
v 0.066668428 -0.099776353 0.950000000
v 0.084852814 -0.084852814 0.950000000
v 0.099776353 -0.066668428 0.950000000
v 0.110865544 -0.045922012 0.950000000
v 0.117694234 -0.023410839 0.950000000
v 0.120000000 0.000000000 1.000000000
v 0.117694234 0.023410839 1.000000000
v 0.110865544 0.045922012 1.000000000
v 0.099776353 0.066668428 1.000000000
v 0.084852814 0.084852814 1.000000000
v 0.066668428 0.099776353 1.000000000
v 0.045922012 0.110865544 1.000000000
v 0.023410839 0.117694234 1.000000000
v 0.000000000 0.120000000 1.000000000
v -0.023410839 0.117694234 1.000000000
v -0.045922012 0.110865544 1.000000000
v -0.066668428 0.099776353 1.000000000
v -0.084852814 0.084852814 1.000000000
v -0.099776353 0.066668428 1.000000000
v -0.110865544 0.045922012 1.000000000
v -0.117694234 0.023410839 1.000000000
v -0.120000000 0.000000000 1.000000000
v -0.117694234 -0.023410839 1.000000000
v -0.110865544 -0.045922012 1.000000000
v -0.099776353 -0.066668428 1.000000000
v -0.084852814 -0.084852814 1.000000000
v -0.066668428 -0.099776353 1.000000000
v -0.045922012 -0.110865544 1.000000000
v -0.023410839 -0.117694234 1.000000000
v -0.000000000 -0.120000000 1.000000000
v 0.023410839 -0.117694234 1.000000000
v 0.045922012 -0.110865544 1.000000000
v 0.066668428 -0.099776353 1.000000000
v 0.084852814 -0.084852814 1.000000000
v 0.099776353 -0.066668428 1.000000000
v 0.110865544 -0.045922012 1.000000000
v 0.117694234 -0.023410839 1.000000000
v 0.120000000 0.000000000 1.050000000
v 0.117694234 0.023410839 1.050000000
v 0.110865544 0.045922012 1.050000000
v 0.099776353 0.066668428 1.050000000
v 0.084852814 0.084852814 1.050000000
v 0.066668428 0.099776353 1.050000000
v 0.045922012 0.110865544 1.050000000
v 0.023410839 0.117694234 1.050000000
v 0.000000000 0.120000000 1.050000000
v -0.023410839 0.117694234 1.050000000
v -0.045922012 0.110865544 1.050000000
v -0.066668428 0.099776353 1.050000000
v -0.084852814 0.084852814 1.050000000
v -0.099776353 0.066668428 1.050000000
v -0.110865544 0.045922012 1.050000000
v -0.117694234 0.023410839 1.050000000
v -0.120000000 0.000000000 1.050000000
v -0.117694234 -0.023410839 1.050000000
v -0.110865544 -0.045922012 1.050000000
v -0.099776353 -0.066668428 1.050000000
v -0.084852814 -0.084852814 1.050000000
v -0.066668428 -0.099776353 1.050000000
v -0.045922012 -0.110865544 1.050000000
v -0.023410839 -0.117694234 1.050000000
v -0.000000000 -0.120000000 1.050000000
v 0.023410839 -0.117694234 1.050000000
v 0.045922012 -0.110865544 1.050000000
v 0.066668428 -0.099776353 1.050000000
v 0.084852814 -0.084852814 1.050000000
v 0.099776353 -0.066668428 1.050000000
v 0.110865544 -0.045922012 1.050000000
v 0.117694234 -0.023410839 1.050000000
v 0.120000000 0.000000000 1.100000000
v 0.117694234 0.023410839 1.100000000
v 0.110865544 0.045922012 1.100000000
v 0.099776353 0.066668428 1.100000000
v 0.084852814 0.084852814 1.100000000
v 0.066668428 0.099776353 1.100000000
v 0.045922012 0.110865544 1.100000000
v 0.023410839 0.117694234 1.100000000
v 0.000000000 0.120000000 1.100000000
v -0.023410839 0.117694234 1.100000000
v -0.045922012 0.110865544 1.100000000
v -0.066668428 0.099776353 1.100000000
v -0.084852814 0.084852814 1.100000000
v -0.099776353 0.066668428 1.100000000
v -0.110865544 0.045922012 1.100000000
v -0.117694234 0.023410839 1.100000000
v -0.120000000 0.000000000 1.100000000
v -0.117694234 -0.023410839 1.100000000
v -0.110865544 -0.045922012 1.100000000
v -0.099776353 -0.066668428 1.100000000
v -0.084852814 -0.084852814 1.100000000
v -0.066668428 -0.099776353 1.100000000
v -0.045922012 -0.110865544 1.100000000
v -0.023410839 -0.117694234 1.100000000
v -0.000000000 -0.120000000 1.100000000
v 0.023410839 -0.117694234 1.100000000
v 0.045922012 -0.110865544 1.100000000
v 0.066668428 -0.099776353 1.100000000
v 0.084852814 -0.084852814 1.100000000
v 0.099776353 -0.066668428 1.100000000
v 0.110865544 -0.045922012 1.100000000
v 0.117694234 -0.023410839 1.100000000
v 0.120000000 0.000000000 1.150000000
v 0.117694234 0.023410839 1.150000000
v 0.110865544 0.045922012 1.150000000
v 0.099776353 0.066668428 1.150000000
v 0.084852814 0.084852814 1.150000000
v 0.066668428 0.099776353 1.150000000
v 0.045922012 0.110865544 1.150000000
v 0.023410839 0.117694234 1.150000000
v 0.000000000 0.120000000 1.150000000
v -0.023410839 0.117694234 1.150000000
v -0.045922012 0.110865544 1.150000000
v -0.066668428 0.099776353 1.150000000
v -0.084852814 0.084852814 1.150000000
v -0.099776353 0.066668428 1.150000000
v -0.110865544 0.045922012 1.150000000
v -0.117694234 0.023410839 1.150000000
v -0.120000000 0.000000000 1.150000000
v -0.117694234 -0.023410839 1.150000000
v -0.110865544 -0.045922012 1.150000000
v -0.099776353 -0.066668428 1.150000000
v -0.084852814 -0.084852814 1.150000000
v -0.066668428 -0.099776353 1.150000000
v -0.045922012 -0.110865544 1.150000000
v -0.023410839 -0.117694234 1.150000000
v -0.000000000 -0.120000000 1.150000000
v 0.023410839 -0.117694234 1.150000000
v 0.045922012 -0.110865544 1.150000000
v 0.066668428 -0.099776353 1.150000000
v 0.084852814 -0.084852814 1.150000000
v 0.099776353 -0.066668428 1.150000000
v 0.110865544 -0.045922012 1.150000000
v 0.117694234 -0.023410839 1.150000000
v 0.120000000 0.000000000 1.200000000
v 0.117694234 0.023410839 1.200000000
v 0.110865544 0.045922012 1.200000000
v 0.099776353 0.066668428 1.200000000
v 0.084852814 0.084852814 1.200000000
v 0.066668428 0.099776353 1.200000000
v 0.045922012 0.110865544 1.200000000
v 0.023410839 0.117694234 1.200000000
v 0.000000000 0.120000000 1.200000000
v -0.023410839 0.117694234 1.200000000
v -0.045922012 0.110865544 1.200000000
v -0.066668428 0.099776353 1.200000000
v -0.084852814 0.084852814 1.200000000
v -0.099776353 0.066668428 1.200000000
v -0.110865544 0.045922012 1.200000000
v -0.117694234 0.023410839 1.200000000
v -0.120000000 0.000000000 1.200000000
v -0.117694234 -0.023410839 1.200000000
v -0.110865544 -0.045922012 1.200000000
v -0.099776353 -0.066668428 1.200000000
v -0.084852814 -0.084852814 1.200000000
v -0.066668428 -0.099776353 1.200000000
v -0.045922012 -0.110865544 1.200000000
v -0.023410839 -0.117694234 1.200000000
v -0.000000000 -0.120000000 1.200000000
v 0.023410839 -0.117694234 1.200000000
v 0.045922012 -0.110865544 1.200000000
v 0.066668428 -0.099776353 1.200000000
v 0.084852814 -0.084852814 1.200000000
v 0.099776353 -0.066668428 1.200000000
v 0.110865544 -0.045922012 1.200000000
v 0.117694234 -0.023410839 1.200000000
v 0.120000000 0.000000000 1.200000000
v 0.117694234 0.023410839 1.200000000
v 0.110865544 0.045922012 1.200000000
v 0.099776353 0.066668428 1.200000000
v 0.084852814 0.084852814 1.200000000
v 0.066668428 0.099776353 1.200000000
v 0.045922012 0.110865544 1.200000000
v 0.023410839 0.117694234 1.200000000
v 0.000000000 0.120000000 1.200000000
v -0.023410839 0.117694234 1.200000000
v -0.045922012 0.110865544 1.200000000
v -0.066668428 0.099776353 1.200000000
v -0.084852814 0.084852814 1.200000000
v -0.099776353 0.066668428 1.200000000
v -0.110865544 0.045922012 1.200000000
v -0.117694234 0.023410839 1.200000000
v -0.120000000 0.000000000 1.200000000
v -0.117694234 -0.023410839 1.200000000
v -0.110865544 -0.045922012 1.200000000
v -0.099776353 -0.066668428 1.200000000
v -0.084852814 -0.084852814 1.200000000
v -0.066668428 -0.099776353 1.200000000
v -0.045922012 -0.110865544 1.200000000
v -0.023410839 -0.117694234 1.200000000
v -0.000000000 -0.120000000 1.200000000
v 0.023410839 -0.117694234 1.200000000
v 0.045922012 -0.110865544 1.200000000
v 0.066668428 -0.099776353 1.200000000
v 0.084852814 -0.084852814 1.200000000
v 0.099776353 -0.066668428 1.200000000
v 0.110865544 -0.045922012 1.200000000
v 0.117694234 -0.023410839 1.200000000
v 0.120000000 0.000000000 1.250000000
v 0.117694234 0.023410839 1.250000000
v 0.110865544 0.045922012 1.250000000
v 0.099776353 0.066668428 1.250000000
v 0.084852814 0.084852814 1.250000000
v 0.066668428 0.099776353 1.250000000
v 0.045922012 0.110865544 1.250000000
v 0.023410839 0.117694234 1.250000000
v 0.000000000 0.120000000 1.250000000
v -0.023410839 0.117694234 1.250000000
v -0.045922012 0.110865544 1.250000000
v -0.066668428 0.099776353 1.250000000
v -0.084852814 0.084852814 1.250000000
v -0.099776353 0.066668428 1.250000000
v -0.110865544 0.045922012 1.250000000
v -0.117694234 0.023410839 1.250000000
v -0.120000000 0.000000000 1.250000000
v -0.117694234 -0.023410839 1.250000000
v -0.110865544 -0.045922012 1.250000000
v -0.099776353 -0.066668428 1.250000000
v -0.084852814 -0.084852814 1.250000000
v -0.066668428 -0.099776353 1.250000000
v -0.045922012 -0.110865544 1.250000000
v -0.023410839 -0.117694234 1.250000000
v -0.000000000 -0.120000000 1.250000000
v 0.023410839 -0.117694234 1.250000000
v 0.045922012 -0.110865544 1.250000000
v 0.066668428 -0.099776353 1.250000000
v 0.084852814 -0.084852814 1.250000000
v 0.099776353 -0.066668428 1.250000000
v 0.110865544 -0.045922012 1.250000000
v 0.117694234 -0.023410839 1.250000000
v 0.120000000 0.000000000 1.300000000
v 0.117694234 0.023410839 1.300000000
v 0.110865544 0.045922012 1.300000000
v 0.099776353 0.066668428 1.300000000
v 0.084852814 0.084852814 1.300000000
v 0.066668428 0.099776353 1.300000000
v 0.045922012 0.110865544 1.300000000
v 0.023410839 0.117694234 1.300000000
v 0.000000000 0.120000000 1.300000000
v -0.023410839 0.117694234 1.300000000
v -0.045922012 0.110865544 1.300000000
v -0.066668428 0.099776353 1.300000000
v -0.084852814 0.084852814 1.300000000
v -0.099776353 0.066668428 1.300000000
v -0.110865544 0.045922012 1.300000000
v -0.117694234 0.023410839 1.300000000
v -0.120000000 0.000000000 1.300000000
v -0.117694234 -0.023410839 1.300000000
v -0.110865544 -0.045922012 1.300000000
v -0.099776353 -0.066668428 1.300000000
v -0.084852814 -0.084852814 1.300000000
v -0.066668428 -0.099776353 1.300000000
v -0.045922012 -0.110865544 1.300000000
v -0.023410839 -0.117694234 1.300000000
v -0.000000000 -0.120000000 1.300000000
v 0.023410839 -0.117694234 1.300000000
v 0.045922012 -0.110865544 1.300000000
v 0.066668428 -0.099776353 1.300000000
v 0.084852814 -0.084852814 1.300000000
v 0.099776353 -0.066668428 1.300000000
v 0.110865544 -0.045922012 1.300000000
v 0.117694234 -0.023410839 1.300000000
v 0.120000000 0.000000000 1.350000000
v 0.117694234 0.023410839 1.350000000
v 0.110865544 0.045922012 1.350000000
v 0.099776353 0.066668428 1.350000000
v 0.084852814 0.084852814 1.350000000
v 0.066668428 0.099776353 1.350000000
v 0.045922012 0.110865544 1.350000000
v 0.023410839 0.117694234 1.350000000
v 0.000000000 0.120000000 1.350000000
v -0.023410839 0.117694234 1.350000000
v -0.045922012 0.110865544 1.350000000
v -0.066668428 0.099776353 1.350000000
v -0.084852814 0.084852814 1.350000000
v -0.099776353 0.066668428 1.350000000
v -0.110865544 0.045922012 1.350000000
v -0.117694234 0.023410839 1.350000000
v -0.120000000 0.000000000 1.350000000
v -0.117694234 -0.023410839 1.350000000
v -0.110865544 -0.045922012 1.350000000
v -0.099776353 -0.066668428 1.350000000
v -0.084852814 -0.084852814 1.350000000
v -0.066668428 -0.099776353 1.350000000
v -0.045922012 -0.110865544 1.350000000
v -0.023410839 -0.117694234 1.350000000
v -0.000000000 -0.120000000 1.350000000
v 0.023410839 -0.117694234 1.350000000
v 0.045922012 -0.110865544 1.350000000
v 0.066668428 -0.099776353 1.350000000
v 0.084852814 -0.084852814 1.350000000
v 0.099776353 -0.066668428 1.350000000
v 0.110865544 -0.045922012 1.350000000
v 0.117694234 -0.023410839 1.350000000
v 0.120000000 0.000000000 1.400000000
v 0.117694234 0.023410839 1.400000000
v 0.110865544 0.045922012 1.400000000
v 0.099776353 0.066668428 1.400000000
v 0.084852814 0.084852814 1.400000000
v 0.066668428 0.099776353 1.400000000
v 0.045922012 0.110865544 1.400000000
v 0.023410839 0.117694234 1.400000000
v 0.000000000 0.120000000 1.400000000
v -0.023410839 0.117694234 1.400000000
v -0.045922012 0.110865544 1.400000000
v -0.066668428 0.099776353 1.400000000
v -0.084852814 0.084852814 1.400000000
v -0.099776353 0.066668428 1.400000000
v -0.110865544 0.045922012 1.400000000
v -0.117694234 0.023410839 1.400000000
v -0.120000000 0.000000000 1.400000000
v -0.117694234 -0.023410839 1.400000000
v -0.110865544 -0.045922012 1.400000000
v -0.099776353 -0.066668428 1.400000000
v -0.084852814 -0.084852814 1.400000000
v -0.066668428 -0.099776353 1.400000000
v -0.045922012 -0.110865544 1.400000000
v -0.023410839 -0.117694234 1.400000000
v -0.000000000 -0.120000000 1.400000000
v 0.023410839 -0.117694234 1.400000000
v 0.045922012 -0.110865544 1.400000000
v 0.066668428 -0.099776353 1.400000000
v 0.084852814 -0.084852814 1.400000000
v 0.099776353 -0.066668428 1.400000000
v 0.110865544 -0.045922012 1.400000000
v 0.117694234 -0.023410839 1.400000000
v 0.120000000 0.000000000 1.450000000
v 0.117694234 0.023410839 1.450000000
v 0.110865544 0.045922012 1.450000000
v 0.099776353 0.066668428 1.450000000
v 0.084852814 0.084852814 1.450000000
v 0.066668428 0.099776353 1.450000000
v 0.045922012 0.110865544 1.450000000
v 0.023410839 0.117694234 1.450000000
v 0.000000000 0.120000000 1.450000000
v -0.023410839 0.117694234 1.450000000
v -0.045922012 0.110865544 1.450000000
v -0.066668428 0.099776353 1.450000000
v -0.084852814 0.084852814 1.450000000
v -0.099776353 0.066668428 1.450000000
v -0.110865544 0.045922012 1.450000000
v -0.117694234 0.023410839 1.450000000
v -0.120000000 0.000000000 1.450000000
v -0.117694234 -0.023410839 1.450000000
v -0.110865544 -0.045922012 1.450000000
v -0.099776353 -0.066668428 1.450000000
v -0.084852814 -0.084852814 1.450000000
v -0.066668428 -0.099776353 1.450000000
v -0.045922012 -0.110865544 1.450000000
v -0.023410839 -0.117694234 1.450000000
v -0.000000000 -0.120000000 1.450000000
v 0.023410839 -0.117694234 1.450000000
v 0.045922012 -0.110865544 1.450000000
v 0.066668428 -0.099776353 1.450000000
v 0.084852814 -0.084852814 1.450000000
v 0.099776353 -0.066668428 1.450000000
v 0.110865544 -0.045922012 1.450000000
v 0.117694234 -0.023410839 1.450000000
v 0.120000000 0.000000000 1.500000000
v 0.117694234 0.023410839 1.500000000
v 0.110865544 0.045922012 1.500000000
v 0.099776353 0.066668428 1.500000000
v 0.084852814 0.084852814 1.500000000
v 0.066668428 0.099776353 1.500000000
v 0.045922012 0.110865544 1.500000000
v 0.023410839 0.117694234 1.500000000
v 0.000000000 0.120000000 1.500000000
v -0.023410839 0.117694234 1.500000000
v -0.045922012 0.110865544 1.500000000
v -0.066668428 0.099776353 1.500000000
v -0.084852814 0.084852814 1.500000000
v -0.099776353 0.066668428 1.500000000
v -0.110865544 0.045922012 1.500000000
v -0.117694234 0.023410839 1.500000000
v -0.120000000 0.000000000 1.500000000
v -0.117694234 -0.023410839 1.500000000
v -0.110865544 -0.045922012 1.500000000
v -0.099776353 -0.066668428 1.500000000
v -0.084852814 -0.084852814 1.500000000
v -0.066668428 -0.099776353 1.500000000
v -0.045922012 -0.110865544 1.500000000
v -0.023410839 -0.117694234 1.500000000
v -0.000000000 -0.120000000 1.500000000
v 0.023410839 -0.117694234 1.500000000
v 0.045922012 -0.110865544 1.500000000
v 0.066668428 -0.099776353 1.500000000
v 0.084852814 -0.084852814 1.500000000
v 0.099776353 -0.066668428 1.500000000
v 0.110865544 -0.045922012 1.500000000
v 0.117694234 -0.023410839 1.500000000
g lower
f 1 2 34 33
f 2 3 35 34
f 3 4 36 35
f 4 5 37 36
f 5 6 38 37
f 6 7 39 38
f 7 8 40 39
f 8 9 41 40
f 9 10 42 41
f 10 11 43 42
f 11 12 44 43
f 12 13 45 44
f 13 14 46 45
f 14 15 47 46
f 15 16 48 47
f 16 17 49 48
f 17 18 50 49
f 18 19 51 50
f 19 20 52 51
f 20 21 53 52
f 21 22 54 53
f 22 23 55 54
f 23 24 56 55
f 24 25 57 56
f 25 26 58 57
f 26 27 59 58
f 27 28 60 59
f 28 29 61 60
f 29 30 62 61
f 30 31 63 62
f 31 32 64 63
f 32 1 33 64
f 33 34 66 65
f 34 35 67 66
f 35 36 68 67
f 36 37 69 68
f 37 38 70 69
f 38 39 71 70
f 39 40 72 71
f 40 41 73 72
f 41 42 74 73
f 42 43 75 74
f 43 44 76 75
f 44 45 77 76
f 45 46 78 77
f 46 47 79 78
f 47 48 80 79
f 48 49 81 80
f 49 50 82 81
f 50 51 83 82
f 51 52 84 83
f 52 53 85 84
f 53 54 86 85
f 54 55 87 86
f 55 56 88 87
f 56 57 89 88
f 57 58 90 89
f 58 59 91 90
f 59 60 92 91
f 60 61 93 92
f 61 62 94 93
f 62 63 95 94
f 63 64 96 95
f 64 33 65 96
f 65 66 98 97
f 66 67 99 98
f 67 68 100 99
f 68 69 101 100
f 69 70 102 101
f 70 71 103 102
f 71 72 104 103
f 72 73 105 104
f 73 74 106 105
f 74 75 107 106
f 75 76 108 107
f 76 77 109 108
f 77 78 110 109
f 78 79 111 110
f 79 80 112 111
f 80 81 113 112
f 81 82 114 113
f 82 83 115 114
f 83 84 116 115
f 84 85 117 116
f 85 86 118 117
f 86 87 119 118
f 87 88 120 119
f 88 89 121 120
f 89 90 122 121
f 90 91 123 122
f 91 92 124 123
f 92 93 125 124
f 93 94 126 125
f 94 95 127 126
f 95 96 128 127
f 96 65 97 128
f 97 98 130 129
f 98 99 131 130
f 99 100 132 131
f 100 101 133 132
f 101 102 134 133
f 102 103 135 134
f 103 104 136 135
f 104 105 137 136
f 105 106 138 137
f 106 107 139 138
f 107 108 140 139
f 108 109 141 140
f 109 110 142 141
f 110 111 143 142
f 111 112 144 143
f 112 113 145 144
f 113 114 146 145
f 114 115 147 146
f 115 116 148 147
f 116 117 149 148
f 117 118 150 149
f 118 119 151 150
f 119 120 152 151
f 120 121 153 152
f 121 122 154 153
f 122 123 155 154
f 123 124 156 155
f 124 125 157 156
f 125 126 158 157
f 126 127 159 158
f 127 128 160 159
f 128 97 129 160
f 129 130 162 161
f 130 131 163 162
f 131 132 164 163
f 132 133 165 164
f 133 134 166 165
f 134 135 167 166
f 135 136 168 167
f 136 137 169 168
f 137 138 170 169
f 138 139 171 170
f 139 140 172 171
f 140 141 173 172
f 141 142 174 173
f 142 143 175 174
f 143 144 176 175
f 144 145 177 176
f 145 146 178 177
f 146 147 179 178
f 147 148 180 179
f 148 149 181 180
f 149 150 182 181
f 150 151 183 182
f 151 152 184 183
f 152 153 185 184
f 153 154 186 185
f 154 155 187 186
f 155 156 188 187
f 156 157 189 188
f 157 158 190 189
f 158 159 191 190
f 159 160 192 191
f 160 129 161 192
g upper
f 193 194 226 225
f 194 195 227 226
f 195 196 228 227
f 196 197 229 228
f 197 198 230 229
f 198 199 231 230
f 199 200 232 231
f 200 201 233 232
f 201 202 234 233
f 202 203 235 234
f 203 204 236 235
f 204 205 237 236
f 205 206 238 237
f 206 207 239 238
f 207 208 240 239
f 208 209 241 240
f 209 210 242 241
f 210 211 243 242
f 211 212 244 243
f 212 213 245 244
f 213 214 246 245
f 214 215 247 246
f 215 216 248 247
f 216 217 249 248
f 217 218 250 249
f 218 219 251 250
f 219 220 252 251
f 220 221 253 252
f 221 222 254 253
f 222 223 255 254
f 223 224 256 255
f 224 193 225 256
f 225 226 258 257
f 226 227 259 258
f 227 228 260 259
f 228 229 261 260
f 229 230 262 261
f 230 231 263 262
f 231 232 264 263
f 232 233 265 264
f 233 234 266 265
f 234 235 267 266
f 235 236 268 267
f 236 237 269 268
f 237 238 270 269
f 238 239 271 270
f 239 240 272 271
f 240 241 273 272
f 241 242 274 273
f 242 243 275 274
f 243 244 276 275
f 244 245 277 276
f 245 246 278 277
f 246 247 279 278
f 247 248 280 279
f 248 249 281 280
f 249 250 282 281
f 250 251 283 282
f 251 252 284 283
f 252 253 285 284
f 253 254 286 285
f 254 255 287 286
f 255 256 288 287
f 256 225 257 288
f 257 258 290 289
f 258 259 291 290
f 259 260 292 291
f 260 261 293 292
f 261 262 294 293
f 262 263 295 294
f 263 264 296 295
f 264 265 297 296
f 265 266 298 297
f 266 267 299 298
f 267 268 300 299
f 268 269 301 300
f 269 270 302 301
f 270 271 303 302
f 271 272 304 303
f 272 273 305 304
f 273 274 306 305
f 274 275 307 306
f 275 276 308 307
f 276 277 309 308
f 277 278 310 309
f 278 279 311 310
f 279 280 312 311
f 280 281 313 312
f 281 282 314 313
f 282 283 315 314
f 283 284 316 315
f 284 285 317 316
f 285 286 318 317
f 286 287 319 318
f 287 288 320 319
f 288 257 289 320
f 289 290 322 321
f 290 291 323 322
f 291 292 324 323
f 292 293 325 324
f 293 294 326 325
f 294 295 327 326
f 295 296 328 327
f 296 297 329 328
f 297 298 330 329
f 298 299 331 330
f 299 300 332 331
f 300 301 333 332
f 301 302 334 333
f 302 303 335 334
f 303 304 336 335
f 304 305 337 336
f 305 306 338 337
f 306 307 339 338
f 307 308 340 339
f 308 309 341 340
f 309 310 342 341
f 310 311 343 342
f 311 312 344 343
f 312 313 345 344
f 313 314 346 345
f 314 315 347 346
f 315 316 348 347
f 316 317 349 348
f 317 318 350 349
f 318 319 351 350
f 319 320 352 351
f 320 289 321 352
f 321 322 354 353
f 322 323 355 354
f 323 324 356 355
f 324 325 357 356
f 325 326 358 357
f 326 327 359 358
f 327 328 360 359
f 328 329 361 360
f 329 330 362 361
f 330 331 363 362
f 331 332 364 363
f 332 333 365 364
f 333 334 366 365
f 334 335 367 366
f 335 336 368 367
f 336 337 369 368
f 337 338 370 369
f 338 339 371 370
f 339 340 372 371
f 340 341 373 372
f 341 342 374 373
f 342 343 375 374
f 343 344 376 375
f 344 345 377 376
f 345 346 378 377
f 346 347 379 378
f 347 348 380 379
f 348 349 381 380
f 349 350 382 381
f 350 351 383 382
f 351 352 384 383
f 352 321 353 384
f 353 354 386 385
f 354 355 387 386
f 355 356 388 387
f 356 357 389 388
f 357 358 390 389
f 358 359 391 390
f 359 360 392 391
f 360 361 393 392
f 361 362 394 393
f 362 363 395 394
f 363 364 396 395
f 364 365 397 396
f 365 366 398 397
f 366 367 399 398
f 367 368 400 399
f 368 369 401 400
f 369 370 402 401
f 370 371 403 402
f 371 372 404 403
f 372 373 405 404
f 373 374 406 405
f 374 375 407 406
f 375 376 408 407
f 376 377 409 408
f 377 378 410 409
f 378 379 411 410
f 379 380 412 411
f 380 381 413 412
f 381 382 414 413
f 382 383 415 414
f 383 384 416 415
f 384 353 385 416
