# SPDX-FileCopyrightText: 2026 Lampway contributors
# SPDX-License-Identifier: GPL-3.0-or-later
# tube authored at the fit pose; weights in weights.json
v 0.050000000 0.000000000 0.100000000
v 0.046193977 0.019134172 0.100000000
v 0.035355339 0.035355339 0.100000000
v 0.019134172 0.046193977 0.100000000
v 0.000000000 0.050000000 0.100000000
v -0.019134172 0.046193977 0.100000000
v -0.035355339 0.035355339 0.100000000
v -0.046193977 0.019134172 0.100000000
v -0.050000000 0.000000000 0.100000000
v -0.046193977 -0.019134172 0.100000000
v -0.035355339 -0.035355339 0.100000000
v -0.019134172 -0.046193977 0.100000000
v -0.000000000 -0.050000000 0.100000000
v 0.019134172 -0.046193977 0.100000000
v 0.035355339 -0.035355339 0.100000000
v 0.046193977 -0.019134172 0.100000000
v 0.050000000 0.000000000 0.125000000
v 0.046193977 0.019134172 0.125000000
v 0.035355339 0.035355339 0.125000000
v 0.019134172 0.046193977 0.125000000
v 0.000000000 0.050000000 0.125000000
v -0.019134172 0.046193977 0.125000000
v -0.035355339 0.035355339 0.125000000
v -0.046193977 0.019134172 0.125000000
v -0.050000000 0.000000000 0.125000000
v -0.046193977 -0.019134172 0.125000000
v -0.035355339 -0.035355339 0.125000000
v -0.019134172 -0.046193977 0.125000000
v -0.000000000 -0.050000000 0.125000000
v 0.019134172 -0.046193977 0.125000000
v 0.035355339 -0.035355339 0.125000000
v 0.046193977 -0.019134172 0.125000000
v 0.050000000 0.000000000 0.150000000
v 0.046193977 0.019134172 0.150000000
v 0.035355339 0.035355339 0.150000000
v 0.019134172 0.046193977 0.150000000
v 0.000000000 0.050000000 0.150000000
v -0.019134172 0.046193977 0.150000000
v -0.035355339 0.035355339 0.150000000
v -0.046193977 0.019134172 0.150000000
v -0.050000000 0.000000000 0.150000000
v -0.046193977 -0.019134172 0.150000000
v -0.035355339 -0.035355339 0.150000000
v -0.019134172 -0.046193977 0.150000000
v -0.000000000 -0.050000000 0.150000000
v 0.019134172 -0.046193977 0.150000000
v 0.035355339 -0.035355339 0.150000000
v 0.046193977 -0.019134172 0.150000000
v 0.050000000 0.000000000 0.175000000
v 0.046193977 0.019134172 0.175000000
v 0.035355339 0.035355339 0.175000000
v 0.019134172 0.046193977 0.175000000
v 0.000000000 0.050000000 0.175000000
v -0.019134172 0.046193977 0.175000000
v -0.035355339 0.035355339 0.175000000
v -0.046193977 0.019134172 0.175000000
v -0.050000000 0.000000000 0.175000000
v -0.046193977 -0.019134172 0.175000000
v -0.035355339 -0.035355339 0.175000000
v -0.019134172 -0.046193977 0.175000000
v -0.000000000 -0.050000000 0.175000000
v 0.019134172 -0.046193977 0.175000000
v 0.035355339 -0.035355339 0.175000000
v 0.046193977 -0.019134172 0.175000000
v 0.050000000 0.000000000 0.200000000
v 0.046193977 0.019134172 0.200000000
v 0.035355339 0.035355339 0.200000000
v 0.019134172 0.046193977 0.200000000
v 0.000000000 0.050000000 0.200000000
v -0.019134172 0.046193977 0.200000000
v -0.035355339 0.035355339 0.200000000
v -0.046193977 0.019134172 0.200000000
v -0.050000000 0.000000000 0.200000000
v -0.046193977 -0.019134172 0.200000000
v -0.035355339 -0.035355339 0.200000000
v -0.019134172 -0.046193977 0.200000000
v -0.000000000 -0.050000000 0.200000000
v 0.019134172 -0.046193977 0.200000000
v 0.035355339 -0.035355339 0.200000000
v 0.046193977 -0.019134172 0.200000000
v 0.050000000 0.000000000 0.225000000
v 0.046193977 0.019134172 0.225000000
v 0.035355339 0.035355339 0.225000000
v 0.019134172 0.046193977 0.225000000
v 0.000000000 0.050000000 0.225000000
v -0.019134172 0.046193977 0.225000000
v -0.035355339 0.035355339 0.225000000
v -0.046193977 0.019134172 0.225000000
v -0.050000000 0.000000000 0.225000000
v -0.046193977 -0.019134172 0.225000000
v -0.035355339 -0.035355339 0.225000000
v -0.019134172 -0.046193977 0.225000000
v -0.000000000 -0.050000000 0.225000000
v 0.019134172 -0.046193977 0.225000000
v 0.035355339 -0.035355339 0.225000000
v 0.046193977 -0.019134172 0.225000000
v 0.050000000 0.000000000 0.250000000
v 0.046193977 0.019134172 0.250000000
v 0.035355339 0.035355339 0.250000000
v 0.019134172 0.046193977 0.250000000
v 0.000000000 0.050000000 0.250000000
v -0.019134172 0.046193977 0.250000000
v -0.035355339 0.035355339 0.250000000
v -0.046193977 0.019134172 0.250000000
v -0.050000000 0.000000000 0.250000000
v -0.046193977 -0.019134172 0.250000000
v -0.035355339 -0.035355339 0.250000000
v -0.019134172 -0.046193977 0.250000000
v -0.000000000 -0.050000000 0.250000000
v 0.019134172 -0.046193977 0.250000000
v 0.035355339 -0.035355339 0.250000000
v 0.046193977 -0.019134172 0.250000000
v 0.050000000 0.003382912 0.276953125
v 0.046193977 0.021022226 0.279542294
v 0.035355339 0.035976115 0.281737285
v 0.019134172 0.045967984 0.283203931
v 0.000000000 0.049476662 0.283718948
v -0.019134172 0.045967984 0.283203931
v -0.035355339 0.035976115 0.281737285
v -0.046193977 0.021022226 0.279542294
v -0.050000000 0.003382912 0.276953125
v -0.046193977 -0.014256403 0.274363956
v -0.035355339 -0.029210291 0.272168965
v -0.019134172 -0.039202160 0.270702319
v -0.000000000 -0.042710838 0.270187302
v 0.019134172 -0.039202160 0.270702319
v 0.035355339 -0.029210291 0.272168965
v 0.046193977 -0.014256403 0.274363956
v 0.050000000 -0.000000000 0.300000000
v 0.046193977 0.014350629 0.308285339
v 0.035355339 0.026516504 0.315309311
v 0.019134172 0.034645482 0.320002579
v 0.000000000 0.037500000 0.321650635
v -0.019134172 0.034645482 0.320002579
v -0.035355339 0.026516504 0.315309311
v -0.046193977 0.014350629 0.308285339
v -0.050000000 -0.000000000 0.300000000
v -0.046193977 -0.014350629 0.291714661
v -0.035355339 -0.026516504 0.284690689
v -0.019134172 -0.034645482 0.279997421
v -0.000000000 -0.037500000 0.278349365
v 0.019134172 -0.034645482 0.279997421
v 0.035355339 -0.026516504 0.284690689
v 0.046193977 -0.014350629 0.291714661
v 0.050000000 -0.018267723 0.314453125
v 0.046193977 -0.007205780 0.328434635
v 0.035355339 0.002172082 0.340287587
v 0.019134172 0.008438169 0.348207476
v 0.000000000 0.010638527 0.350988572
v -0.019134172 0.008438169 0.348207476
v -0.035355339 0.002172082 0.340287587
v -0.046193977 -0.007205780 0.328434635
v -0.050000000 -0.018267723 0.314453125
v -0.046193977 -0.029329666 0.300471615
v -0.035355339 -0.038707529 0.288618663
v -0.019134172 -0.044973616 0.280698774
v -0.000000000 -0.047173973 0.277917678
v 0.019134172 -0.044973616 0.280698774
v 0.035355339 -0.038707529 0.288618663
v 0.046193977 -0.029329666 0.300471615
v 0.050000000 -0.043301270 0.325000000
v 0.046193977 -0.033734184 0.341570679
v 0.035355339 -0.025623601 0.355618622
v 0.019134172 -0.020204282 0.365005157
v 0.000000000 -0.018301270 0.368301270
v -0.019134172 -0.020204282 0.365005157
v -0.035355339 -0.025623601 0.355618622
v -0.046193977 -0.033734184 0.341570679
v -0.050000000 -0.043301270 0.325000000
v -0.046193977 -0.052868356 0.308429321
v -0.035355339 -0.060978940 0.294381378
v -0.019134172 -0.066398259 0.284994843
v -0.000000000 -0.068301270 0.281698730
v 0.019134172 -0.066398259 0.284994843
v 0.035355339 -0.060978940 0.294381378
v 0.046193977 -0.052868356 0.308429321
v 0.050000000 -0.064951905 0.337500000
v 0.046193977 -0.055384819 0.354070679
v 0.035355339 -0.047274236 0.368118622
v 0.019134172 -0.041854917 0.377505157
v 0.000000000 -0.039951905 0.380801270
v -0.019134172 -0.041854917 0.377505157
v -0.035355339 -0.047274236 0.368118622
v -0.046193977 -0.055384819 0.354070679
v -0.050000000 -0.064951905 0.337500000
v -0.046193977 -0.074518991 0.320929321
v -0.035355339 -0.082629575 0.306881378
v -0.019134172 -0.088048894 0.297494843
v -0.000000000 -0.089951905 0.294198730
v 0.019134172 -0.088048894 0.297494843
v 0.035355339 -0.082629575 0.306881378
v 0.046193977 -0.074518991 0.320929321
v 0.050000000 -0.086602540 0.350000000
v 0.046193977 -0.077035455 0.366570679
v 0.035355339 -0.068924871 0.380618622
v 0.019134172 -0.063505552 0.390005157
v 0.000000000 -0.061602540 0.393301270
v -0.019134172 -0.063505552 0.390005157
v -0.035355339 -0.068924871 0.380618622
v -0.046193977 -0.077035455 0.366570679
v -0.050000000 -0.086602540 0.350000000
v -0.046193977 -0.096169626 0.333429321
v -0.035355339 -0.104280210 0.319381378
v -0.019134172 -0.109699529 0.309994843
v -0.000000000 -0.111602540 0.306698730
v 0.019134172 -0.109699529 0.309994843
v 0.035355339 -0.104280210 0.319381378
v 0.046193977 -0.096169626 0.333429321
v 0.050000000 -0.108253175 0.362500000
v 0.046193977 -0.098686090 0.379070679
v 0.035355339 -0.090575506 0.393118622
v 0.019134172 -0.085156187 0.402505157
v 0.000000000 -0.083253175 0.405801270
v -0.019134172 -0.085156187 0.402505157
v -0.035355339 -0.090575506 0.393118622
v -0.046193977 -0.098686090 0.379070679
v -0.050000000 -0.108253175 0.362500000
v -0.046193977 -0.117820261 0.345929321
v -0.035355339 -0.125930845 0.331881378
v -0.019134172 -0.131350164 0.322494843
v -0.000000000 -0.133253175 0.319198730
v 0.019134172 -0.131350164 0.322494843
v 0.035355339 -0.125930845 0.331881378
v 0.046193977 -0.117820261 0.345929321
v 0.050000000 -0.129903811 0.375000000
v 0.046193977 -0.120336725 0.391570679
v 0.035355339 -0.112226141 0.405618622
v 0.019134172 -0.106806822 0.415005157
v 0.000000000 -0.104903811 0.418301270
v -0.019134172 -0.106806822 0.415005157
v -0.035355339 -0.112226141 0.405618622
v -0.046193977 -0.120336725 0.391570679
v -0.050000000 -0.129903811 0.375000000
v -0.046193977 -0.139470896 0.358429321
v -0.035355339 -0.147581480 0.344381378
v -0.019134172 -0.153000799 0.334994843
v -0.000000000 -0.154903811 0.331698730
v 0.019134172 -0.153000799 0.334994843
v 0.035355339 -0.147581480 0.344381378
v 0.046193977 -0.139470896 0.358429321
v 0.050000000 -0.151554446 0.387500000
v 0.046193977 -0.141987360 0.404070679
v 0.035355339 -0.133876776 0.418118622
v 0.019134172 -0.128457457 0.427505157
v 0.000000000 -0.126554446 0.430801270
v -0.019134172 -0.128457457 0.427505157
v -0.035355339 -0.133876776 0.418118622
v -0.046193977 -0.141987360 0.404070679
v -0.050000000 -0.151554446 0.387500000
v -0.046193977 -0.161121531 0.370929321
v -0.035355339 -0.169232115 0.356881378
v -0.019134172 -0.174651434 0.347494843
v -0.000000000 -0.176554446 0.344198730
v 0.019134172 -0.174651434 0.347494843
v 0.035355339 -0.169232115 0.356881378
v 0.046193977 -0.161121531 0.370929321
v 0.050000000 -0.173205081 0.400000000
v 0.046193977 -0.163637995 0.416570679
v 0.035355339 -0.155527411 0.430618622
v 0.019134172 -0.150108092 0.440005157
v 0.000000000 -0.148205081 0.443301270
v -0.019134172 -0.150108092 0.440005157
v -0.035355339 -0.155527411 0.430618622
v -0.046193977 -0.163637995 0.416570679
v -0.050000000 -0.173205081 0.400000000
v -0.046193977 -0.182772167 0.383429321
v -0.035355339 -0.190882750 0.369381378
v -0.019134172 -0.196302069 0.359994843
v -0.000000000 -0.198205081 0.356698730
v 0.019134172 -0.196302069 0.359994843
v 0.035355339 -0.190882750 0.369381378
v 0.046193977 -0.182772167 0.383429321
f 1 2 18 17
f 2 3 19 18
f 3 4 20 19
f 4 5 21 20
f 5 6 22 21
f 6 7 23 22
f 7 8 24 23
f 8 9 25 24
f 9 10 26 25
f 10 11 27 26
f 11 12 28 27
f 12 13 29 28
f 13 14 30 29
f 14 15 31 30
f 15 16 32 31
f 16 1 17 32
f 17 18 34 33
f 18 19 35 34
f 19 20 36 35
f 20 21 37 36
f 21 22 38 37
f 22 23 39 38
f 23 24 40 39
f 24 25 41 40
f 25 26 42 41
f 26 27 43 42
f 27 28 44 43
f 28 29 45 44
f 29 30 46 45
f 30 31 47 46
f 31 32 48 47
f 32 17 33 48
f 33 34 50 49
f 34 35 51 50
f 35 36 52 51
f 36 37 53 52
f 37 38 54 53
f 38 39 55 54
f 39 40 56 55
f 40 41 57 56
f 41 42 58 57
f 42 43 59 58
f 43 44 60 59
f 44 45 61 60
f 45 46 62 61
f 46 47 63 62
f 47 48 64 63
f 48 33 49 64
f 49 50 66 65
f 50 51 67 66
f 51 52 68 67
f 52 53 69 68
f 53 54 70 69
f 54 55 71 70
f 55 56 72 71
f 56 57 73 72
f 57 58 74 73
f 58 59 75 74
f 59 60 76 75
f 60 61 77 76
f 61 62 78 77
f 62 63 79 78
f 63 64 80 79
f 64 49 65 80
f 65 66 82 81
f 66 67 83 82
f 67 68 84 83
f 68 69 85 84
f 69 70 86 85
f 70 71 87 86
f 71 72 88 87
f 72 73 89 88
f 73 74 90 89
f 74 75 91 90
f 75 76 92 91
f 76 77 93 92
f 77 78 94 93
f 78 79 95 94
f 79 80 96 95
f 80 65 81 96
f 81 82 98 97
f 82 83 99 98
f 83 84 100 99
f 84 85 101 100
f 85 86 102 101
f 86 87 103 102
f 87 88 104 103
f 88 89 105 104
f 89 90 106 105
f 90 91 107 106
f 91 92 108 107
f 92 93 109 108
f 93 94 110 109
f 94 95 111 110
f 95 96 112 111
f 96 81 97 112
f 97 98 114 113
f 98 99 115 114
f 99 100 116 115
f 100 101 117 116
f 101 102 118 117
f 102 103 119 118
f 103 104 120 119
f 104 105 121 120
f 105 106 122 121
f 106 107 123 122
f 107 108 124 123
f 108 109 125 124
f 109 110 126 125
f 110 111 127 126
f 111 112 128 127
f 112 97 113 128
f 113 114 130 129
f 114 115 131 130
f 115 116 132 131
f 116 117 133 132
f 117 118 134 133
f 118 119 135 134
f 119 120 136 135
f 120 121 137 136
f 121 122 138 137
f 122 123 139 138
f 123 124 140 139
f 124 125 141 140
f 125 126 142 141
f 126 127 143 142
f 127 128 144 143
f 128 113 129 144
f 129 130 146 145
f 130 131 147 146
f 131 132 148 147
f 132 133 149 148
f 133 134 150 149
f 134 135 151 150
f 135 136 152 151
f 136 137 153 152
f 137 138 154 153
f 138 139 155 154
f 139 140 156 155
f 140 141 157 156
f 141 142 158 157
f 142 143 159 158
f 143 144 160 159
f 144 129 145 160
f 145 146 162 161
f 146 147 163 162
f 147 148 164 163
f 148 149 165 164
f 149 150 166 165
f 150 151 167 166
f 151 152 168 167
f 152 153 169 168
f 153 154 170 169
f 154 155 171 170
f 155 156 172 171
f 156 157 173 172
f 157 158 174 173
f 158 159 175 174
f 159 160 176 175
f 160 145 161 176
f 161 162 178 177
f 162 163 179 178
f 163 164 180 179
f 164 165 181 180
f 165 166 182 181
f 166 167 183 182
f 167 168 184 183
f 168 169 185 184
f 169 170 186 185
f 170 171 187 186
f 171 172 188 187
f 172 173 189 188
f 173 174 190 189
f 174 175 191 190
f 175 176 192 191
f 176 161 177 192
f 177 178 194 193
f 178 179 195 194
f 179 180 196 195
f 180 181 197 196
f 181 182 198 197
f 182 183 199 198
f 183 184 200 199
f 184 185 201 200
f 185 186 202 201
f 186 187 203 202
f 187 188 204 203
f 188 189 205 204
f 189 190 206 205
f 190 191 207 206
f 191 192 208 207
f 192 177 193 208
f 193 194 210 209
f 194 195 211 210
f 195 196 212 211
f 196 197 213 212
f 197 198 214 213
f 198 199 215 214
f 199 200 216 215
f 200 201 217 216
f 201 202 218 217
f 202 203 219 218
f 203 204 220 219
f 204 205 221 220
f 205 206 222 221
f 206 207 223 222
f 207 208 224 223
f 208 193 209 224
f 209 210 226 225
f 210 211 227 226
f 211 212 228 227
f 212 213 229 228
f 213 214 230 229
f 214 215 231 230
f 215 216 232 231
f 216 217 233 232
f 217 218 234 233
f 218 219 235 234
f 219 220 236 235
f 220 221 237 236
f 221 222 238 237
f 222 223 239 238
f 223 224 240 239
f 224 209 225 240
f 225 226 242 241
f 226 227 243 242
f 227 228 244 243
f 228 229 245 244
f 229 230 246 245
f 230 231 247 246
f 231 232 248 247
f 232 233 249 248
f 233 234 250 249
f 234 235 251 250
f 235 236 252 251
f 236 237 253 252
f 237 238 254 253
f 238 239 255 254
f 239 240 256 255
f 240 225 241 256
f 241 242 258 257
f 242 243 259 258
f 243 244 260 259
f 244 245 261 260
f 245 246 262 261
f 246 247 263 262
f 247 248 264 263
f 248 249 265 264
f 249 250 266 265
f 250 251 267 266
f 251 252 268 267
f 252 253 269 268
f 253 254 270 269
f 254 255 271 270
f 255 256 272 271
f 256 241 257 272
