# SPDX-FileCopyrightText: 2026 Lampway contributors
# SPDX-License-Identifier: GPL-3.0-or-later
v 0.000000000 0.000000000 0.000000000
v 1.000000000 0.000000000 0.000000000
v 1.000000000 1.000000000 0.000000000
v 0.000000000 1.000000000 0.000000000
v 2.000000000 0.000000000 0.000000000
v 3.000000000 0.000000000 0.000000000
v 3.000000000 1.000000000 0.000000000
v 2.000000000 1.000000000 0.000000000
v 4.000000000 0.000000000 0.000000000
v 5.000000000 0.000000000 0.000000000
v 5.000000000 1.000000000 0.000000000
v 4.000000000 1.000000000 0.000000000
vt 0.000000000 0.000000000
vt 0.500000000 0.000000000
vt 0.500000000 0.500000000
vt 0.000000000 0.500000000
vt 0.500000000 0.000000000
vt 1.000000000 0.000000000
vt 1.000000000 0.250000000
vt 0.500000000 0.250000000
vt 0.250000000 0.500000000
vt 0.000000000 0.500000000
vt 0.000000000 0.750000000
vt 0.250000000 0.750000000
f 1/1 2/2 3/3 4/4
f 5/5 6/6 7/7 8/8
f 9/9 10/10 11/11 12/12
