# SPDX-FileCopyrightText: 2026 Lampway contributors
# SPDX-License-Identifier: GPL-3.0-or-later
v 0.055000000 0.000000000 1.300000000
v 0.053943190 0.010729968 1.300000000
v 0.050813374 0.021047589 1.300000000
v 0.045730829 0.030556363 1.300000000
v 0.038890873 0.038890873 1.300000000
v 0.030556363 0.045730829 1.300000000
v 0.021047589 0.050813374 1.300000000
v 0.010729968 0.053943190 1.300000000
v 0.000000000 0.055000000 1.300000000
v -0.010729968 0.053943190 1.300000000
v -0.021047589 0.050813374 1.300000000
v -0.030556363 0.045730829 1.300000000
v -0.038890873 0.038890873 1.300000000
v -0.045730829 0.030556363 1.300000000
v -0.050813374 0.021047589 1.300000000
v -0.053943190 0.010729968 1.300000000
v -0.055000000 0.000000000 1.300000000
v -0.053943190 -0.010729968 1.300000000
v -0.050813374 -0.021047589 1.300000000
v -0.045730829 -0.030556363 1.300000000
v -0.038890873 -0.038890873 1.300000000
v -0.030556363 -0.045730829 1.300000000
v -0.021047589 -0.050813374 1.300000000
v -0.010729968 -0.053943190 1.300000000
v -0.000000000 -0.055000000 1.300000000
v 0.010729968 -0.053943190 1.300000000
v 0.021047589 -0.050813374 1.300000000
v 0.030556363 -0.045730829 1.300000000
v 0.038890873 -0.038890873 1.300000000
v 0.045730829 -0.030556363 1.300000000
v 0.050813374 -0.021047589 1.300000000
v 0.053943190 -0.010729968 1.300000000
v 0.055000000 0.000000000 1.450000000
v 0.053943190 0.010729968 1.450000000
v 0.050813374 0.021047589 1.450000000
v 0.045730829 0.030556363 1.450000000
v 0.038890873 0.038890873 1.450000000
v 0.030556363 0.045730829 1.450000000
v 0.021047589 0.050813374 1.450000000
v 0.010729968 0.053943190 1.450000000
v 0.000000000 0.055000000 1.450000000
v -0.010729968 0.053943190 1.450000000
v -0.021047589 0.050813374 1.450000000
v -0.030556363 0.045730829 1.450000000
v -0.038890873 0.038890873 1.450000000
v -0.045730829 0.030556363 1.450000000
v -0.050813374 0.021047589 1.450000000
v -0.053943190 0.010729968 1.450000000
v -0.055000000 0.000000000 1.450000000
v -0.053943190 -0.010729968 1.450000000
v -0.050813374 -0.021047589 1.450000000
v -0.045730829 -0.030556363 1.450000000
v -0.038890873 -0.038890873 1.450000000
v -0.030556363 -0.045730829 1.450000000
v -0.021047589 -0.050813374 1.450000000
v -0.010729968 -0.053943190 1.450000000
v -0.000000000 -0.055000000 1.450000000
v 0.010729968 -0.053943190 1.450000000
v 0.021047589 -0.050813374 1.450000000
v 0.030556363 -0.045730829 1.450000000
v 0.038890873 -0.038890873 1.450000000
v 0.045730829 -0.030556363 1.450000000
v 0.050813374 -0.021047589 1.450000000
v 0.053943190 -0.010729968 1.450000000
v 0.055000000 0.000000000 1.600000000
v 0.053943190 0.010729968 1.600000000
v 0.050813374 0.021047589 1.600000000
v 0.045730829 0.030556363 1.600000000
v 0.038890873 0.038890873 1.600000000
v 0.030556363 0.045730829 1.600000000
v 0.021047589 0.050813374 1.600000000
v 0.010729968 0.053943190 1.600000000
v 0.000000000 0.055000000 1.600000000
v -0.010729968 0.053943190 1.600000000
v -0.021047589 0.050813374 1.600000000
v -0.030556363 0.045730829 1.600000000
v -0.038890873 0.038890873 1.600000000
v -0.045730829 0.030556363 1.600000000
v -0.050813374 0.021047589 1.600000000
v -0.053943190 0.010729968 1.600000000
v -0.055000000 0.000000000 1.600000000
v -0.053943190 -0.010729968 1.600000000
v -0.050813374 -0.021047589 1.600000000
v -0.045730829 -0.030556363 1.600000000
v -0.038890873 -0.038890873 1.600000000
v -0.030556363 -0.045730829 1.600000000
v -0.021047589 -0.050813374 1.600000000
v -0.010729968 -0.053943190 1.600000000
v -0.000000000 -0.055000000 1.600000000
v 0.010729968 -0.053943190 1.600000000
v 0.021047589 -0.050813374 1.600000000
v 0.030556363 -0.045730829 1.600000000
v 0.038890873 -0.038890873 1.600000000
v 0.045730829 -0.030556363 1.600000000
v 0.050813374 -0.021047589 1.600000000
v 0.053943190 -0.010729968 1.600000000
v 0.055000000 0.000000000 1.750000000
v 0.053943190 0.010729968 1.750000000
v 0.050813374 0.021047589 1.750000000
v 0.045730829 0.030556363 1.750000000
v 0.038890873 0.038890873 1.750000000
v 0.030556363 0.045730829 1.750000000
v 0.021047589 0.050813374 1.750000000
v 0.010729968 0.053943190 1.750000000
v 0.000000000 0.055000000 1.750000000
v -0.010729968 0.053943190 1.750000000
v -0.021047589 0.050813374 1.750000000
v -0.030556363 0.045730829 1.750000000
v -0.038890873 0.038890873 1.750000000
v -0.045730829 0.030556363 1.750000000
v -0.050813374 0.021047589 1.750000000
v -0.053943190 0.010729968 1.750000000
v -0.055000000 0.000000000 1.750000000
v -0.053943190 -0.010729968 1.750000000
v -0.050813374 -0.021047589 1.750000000
v -0.045730829 -0.030556363 1.750000000
v -0.038890873 -0.038890873 1.750000000
v -0.030556363 -0.045730829 1.750000000
v -0.021047589 -0.050813374 1.750000000
v -0.010729968 -0.053943190 1.750000000
v -0.000000000 -0.055000000 1.750000000
v 0.010729968 -0.053943190 1.750000000
v 0.021047589 -0.050813374 1.750000000
v 0.030556363 -0.045730829 1.750000000
v 0.038890873 -0.038890873 1.750000000
v 0.045730829 -0.030556363 1.750000000
v 0.050813374 -0.021047589 1.750000000
v 0.053943190 -0.010729968 1.750000000
f 1 2 34 33
f 2 3 35 34
f 3 4 36 35
f 4 5 37 36
f 5 6 38 37
f 6 7 39 38
f 7 8 40 39
f 8 9 41 40
f 9 10 42 41
f 10 11 43 42
f 11 12 44 43
f 12 13 45 44
f 13 14 46 45
f 14 15 47 46
f 15 16 48 47
f 16 17 49 48
f 17 18 50 49
f 18 19 51 50
f 19 20 52 51
f 20 21 53 52
f 21 22 54 53
f 22 23 55 54
f 23 24 56 55
f 24 25 57 56
f 25 26 58 57
f 26 27 59 58
f 27 28 60 59
f 28 29 61 60
f 29 30 62 61
f 30 31 63 62
f 31 32 64 63
f 32 1 33 64
f 33 34 66 65
f 34 35 67 66
f 35 36 68 67
f 36 37 69 68
f 37 38 70 69
f 38 39 71 70
f 39 40 72 71
f 40 41 73 72
f 41 42 74 73
f 42 43 75 74
f 43 44 76 75
f 44 45 77 76
f 45 46 78 77
f 46 47 79 78
f 47 48 80 79
f 48 49 81 80
f 49 50 82 81
f 50 51 83 82
f 51 52 84 83
f 52 53 85 84
f 53 54 86 85
f 54 55 87 86
f 55 56 88 87
f 56 57 89 88
f 57 58 90 89
f 58 59 91 90
f 59 60 92 91
f 60 61 93 92
f 61 62 94 93
f 62 63 95 94
f 63 64 96 95
f 64 33 65 96
f 65 66 98 97
f 66 67 99 98
f 67 68 100 99
f 68 69 101 100
f 69 70 102 101
f 70 71 103 102
f 71 72 104 103
f 72 73 105 104
f 73 74 106 105
f 74 75 107 106
f 75 76 108 107
f 76 77 109 108
f 77 78 110 109
f 78 79 111 110
f 79 80 112 111
f 80 81 113 112
f 81 82 114 113
f 82 83 115 114
f 83 84 116 115
f 84 85 117 116
f 85 86 118 117
f 86 87 119 118
f 87 88 120 119
f 88 89 121 120
f 89 90 122 121
f 90 91 123 122
f 91 92 124 123
f 92 93 125 124
f 93 94 126 125
f 94 95 127 126
f 95 96 128 127
f 96 65 97 128
