# SPDX-FileCopyrightText: 2026 Lampway contributors
# SPDX-License-Identifier: GPL-3.0-or-later
# open bottom rim, capped top
v 0.090000000 0.000000000 1.400000000
v 0.088270675 0.017558129 1.400000000
v 0.083149158 0.034441509 1.400000000
v 0.074832265 0.050001321 1.400000000
v 0.063639610 0.063639610 1.400000000
v 0.050001321 0.074832265 1.400000000
v 0.034441509 0.083149158 1.400000000
v 0.017558129 0.088270675 1.400000000
v 0.000000000 0.090000000 1.400000000
v -0.017558129 0.088270675 1.400000000
v -0.034441509 0.083149158 1.400000000
v -0.050001321 0.074832265 1.400000000
v -0.063639610 0.063639610 1.400000000
v -0.074832265 0.050001321 1.400000000
v -0.083149158 0.034441509 1.400000000
v -0.088270675 0.017558129 1.400000000
v -0.090000000 0.000000000 1.400000000
v -0.088270675 -0.017558129 1.400000000
v -0.083149158 -0.034441509 1.400000000
v -0.074832265 -0.050001321 1.400000000
v -0.063639610 -0.063639610 1.400000000
v -0.050001321 -0.074832265 1.400000000
v -0.034441509 -0.083149158 1.400000000
v -0.017558129 -0.088270675 1.400000000
v -0.000000000 -0.090000000 1.400000000
v 0.017558129 -0.088270675 1.400000000
v 0.034441509 -0.083149158 1.400000000
v 0.050001321 -0.074832265 1.400000000
v 0.063639610 -0.063639610 1.400000000
v 0.074832265 -0.050001321 1.400000000
v 0.083149158 -0.034441509 1.400000000
v 0.088270675 -0.017558129 1.400000000
v 0.090000000 0.000000000 1.450000000
v 0.088270675 0.017558129 1.450000000
v 0.083149158 0.034441509 1.450000000
v 0.074832265 0.050001321 1.450000000
v 0.063639610 0.063639610 1.450000000
v 0.050001321 0.074832265 1.450000000
v 0.034441509 0.083149158 1.450000000
v 0.017558129 0.088270675 1.450000000
v 0.000000000 0.090000000 1.450000000
v -0.017558129 0.088270675 1.450000000
v -0.034441509 0.083149158 1.450000000
v -0.050001321 0.074832265 1.450000000
v -0.063639610 0.063639610 1.450000000
v -0.074832265 0.050001321 1.450000000
v -0.083149158 0.034441509 1.450000000
v -0.088270675 0.017558129 1.450000000
v -0.090000000 0.000000000 1.450000000
v -0.088270675 -0.017558129 1.450000000
v -0.083149158 -0.034441509 1.450000000
v -0.074832265 -0.050001321 1.450000000
v -0.063639610 -0.063639610 1.450000000
v -0.050001321 -0.074832265 1.450000000
v -0.034441509 -0.083149158 1.450000000
v -0.017558129 -0.088270675 1.450000000
v -0.000000000 -0.090000000 1.450000000
v 0.017558129 -0.088270675 1.450000000
v 0.034441509 -0.083149158 1.450000000
v 0.050001321 -0.074832265 1.450000000
v 0.063639610 -0.063639610 1.450000000
v 0.074832265 -0.050001321 1.450000000
v 0.083149158 -0.034441509 1.450000000
v 0.088270675 -0.017558129 1.450000000
v 0.090000000 0.000000000 1.500000000
v 0.088270675 0.017558129 1.500000000
v 0.083149158 0.034441509 1.500000000
v 0.074832265 0.050001321 1.500000000
v 0.063639610 0.063639610 1.500000000
v 0.050001321 0.074832265 1.500000000
v 0.034441509 0.083149158 1.500000000
v 0.017558129 0.088270675 1.500000000
v 0.000000000 0.090000000 1.500000000
v -0.017558129 0.088270675 1.500000000
v -0.034441509 0.083149158 1.500000000
v -0.050001321 0.074832265 1.500000000
v -0.063639610 0.063639610 1.500000000
v -0.074832265 0.050001321 1.500000000
v -0.083149158 0.034441509 1.500000000
v -0.088270675 0.017558129 1.500000000
v -0.090000000 0.000000000 1.500000000
v -0.088270675 -0.017558129 1.500000000
v -0.083149158 -0.034441509 1.500000000
v -0.074832265 -0.050001321 1.500000000
v -0.063639610 -0.063639610 1.500000000
v -0.050001321 -0.074832265 1.500000000
v -0.034441509 -0.083149158 1.500000000
v -0.017558129 -0.088270675 1.500000000
v -0.000000000 -0.090000000 1.500000000
v 0.017558129 -0.088270675 1.500000000
v 0.034441509 -0.083149158 1.500000000
v 0.050001321 -0.074832265 1.500000000
v 0.063639610 -0.063639610 1.500000000
v 0.074832265 -0.050001321 1.500000000
v 0.083149158 -0.034441509 1.500000000
v 0.088270675 -0.017558129 1.500000000
v 0.090000000 0.000000000 1.550000000
v 0.088270675 0.017558129 1.550000000
v 0.083149158 0.034441509 1.550000000
v 0.074832265 0.050001321 1.550000000
v 0.063639610 0.063639610 1.550000000
v 0.050001321 0.074832265 1.550000000
v 0.034441509 0.083149158 1.550000000
v 0.017558129 0.088270675 1.550000000
v 0.000000000 0.090000000 1.550000000
v -0.017558129 0.088270675 1.550000000
v -0.034441509 0.083149158 1.550000000
v -0.050001321 0.074832265 1.550000000
v -0.063639610 0.063639610 1.550000000
v -0.074832265 0.050001321 1.550000000
v -0.083149158 0.034441509 1.550000000
v -0.088270675 0.017558129 1.550000000
v -0.090000000 0.000000000 1.550000000
v -0.088270675 -0.017558129 1.550000000
v -0.083149158 -0.034441509 1.550000000
v -0.074832265 -0.050001321 1.550000000
v -0.063639610 -0.063639610 1.550000000
v -0.050001321 -0.074832265 1.550000000
v -0.034441509 -0.083149158 1.550000000
v -0.017558129 -0.088270675 1.550000000
v -0.000000000 -0.090000000 1.550000000
v 0.017558129 -0.088270675 1.550000000
v 0.034441509 -0.083149158 1.550000000
v 0.050001321 -0.074832265 1.550000000
v 0.063639610 -0.063639610 1.550000000
v 0.074832265 -0.050001321 1.550000000
v 0.083149158 -0.034441509 1.550000000
v 0.088270675 -0.017558129 1.550000000
v 0.090000000 0.000000000 1.600000000
v 0.088270675 0.017558129 1.600000000
v 0.083149158 0.034441509 1.600000000
v 0.074832265 0.050001321 1.600000000
v 0.063639610 0.063639610 1.600000000
v 0.050001321 0.074832265 1.600000000
v 0.034441509 0.083149158 1.600000000
v 0.017558129 0.088270675 1.600000000
v 0.000000000 0.090000000 1.600000000
v -0.017558129 0.088270675 1.600000000
v -0.034441509 0.083149158 1.600000000
v -0.050001321 0.074832265 1.600000000
v -0.063639610 0.063639610 1.600000000
v -0.074832265 0.050001321 1.600000000
v -0.083149158 0.034441509 1.600000000
v -0.088270675 0.017558129 1.600000000
v -0.090000000 0.000000000 1.600000000
v -0.088270675 -0.017558129 1.600000000
v -0.083149158 -0.034441509 1.600000000
v -0.074832265 -0.050001321 1.600000000
v -0.063639610 -0.063639610 1.600000000
v -0.050001321 -0.074832265 1.600000000
v -0.034441509 -0.083149158 1.600000000
v -0.017558129 -0.088270675 1.600000000
v -0.000000000 -0.090000000 1.600000000
v 0.017558129 -0.088270675 1.600000000
v 0.034441509 -0.083149158 1.600000000
v 0.050001321 -0.074832265 1.600000000
v 0.063639610 -0.063639610 1.600000000
v 0.074832265 -0.050001321 1.600000000
v 0.083149158 -0.034441509 1.600000000
v 0.088270675 -0.017558129 1.600000000
v 0.000000000 0.000000000 1.600000000
f 1 2 34 33
f 2 3 35 34
f 3 4 36 35
f 4 5 37 36
f 5 6 38 37
f 6 7 39 38
f 7 8 40 39
f 8 9 41 40
f 9 10 42 41
f 10 11 43 42
f 11 12 44 43
f 12 13 45 44
f 13 14 46 45
f 14 15 47 46
f 15 16 48 47
f 16 17 49 48
f 17 18 50 49
f 18 19 51 50
f 19 20 52 51
f 20 21 53 52
f 21 22 54 53
f 22 23 55 54
f 23 24 56 55
f 24 25 57 56
f 25 26 58 57
f 26 27 59 58
f 27 28 60 59
f 28 29 61 60
f 29 30 62 61
f 30 31 63 62
f 31 32 64 63
f 32 1 33 64
f 33 34 66 65
f 34 35 67 66
f 35 36 68 67
f 36 37 69 68
f 37 38 70 69
f 38 39 71 70
f 39 40 72 71
f 40 41 73 72
f 41 42 74 73
f 42 43 75 74
f 43 44 76 75
f 44 45 77 76
f 45 46 78 77
f 46 47 79 78
f 47 48 80 79
f 48 49 81 80
f 49 50 82 81
f 50 51 83 82
f 51 52 84 83
f 52 53 85 84
f 53 54 86 85
f 54 55 87 86
f 55 56 88 87
f 56 57 89 88
f 57 58 90 89
f 58 59 91 90
f 59 60 92 91
f 60 61 93 92
f 61 62 94 93
f 62 63 95 94
f 63 64 96 95
f 64 33 65 96
f 65 66 98 97
f 66 67 99 98
f 67 68 100 99
f 68 69 101 100
f 69 70 102 101
f 70 71 103 102
f 71 72 104 103
f 72 73 105 104
f 73 74 106 105
f 74 75 107 106
f 75 76 108 107
f 76 77 109 108
f 77 78 110 109
f 78 79 111 110
f 79 80 112 111
f 80 81 113 112
f 81 82 114 113
f 82 83 115 114
f 83 84 116 115
f 84 85 117 116
f 85 86 118 117
f 86 87 119 118
f 87 88 120 119
f 88 89 121 120
f 89 90 122 121
f 90 91 123 122
f 91 92 124 123
f 92 93 125 124
f 93 94 126 125
f 94 95 127 126
f 95 96 128 127
f 96 65 97 128
f 97 98 130 129
f 98 99 131 130
f 99 100 132 131
f 100 101 133 132
f 101 102 134 133
f 102 103 135 134
f 103 104 136 135
f 104 105 137 136
f 105 106 138 137
f 106 107 139 138
f 107 108 140 139
f 108 109 141 140
f 109 110 142 141
f 110 111 143 142
f 111 112 144 143
f 112 113 145 144
f 113 114 146 145
f 114 115 147 146
f 115 116 148 147
f 116 117 149 148
f 117 118 150 149
f 118 119 151 150
f 119 120 152 151
f 120 121 153 152
f 121 122 154 153
f 122 123 155 154
f 123 124 156 155
f 124 125 157 156
f 125 126 158 157
f 126 127 159 158
f 127 128 160 159
f 128 97 129 160
f 129 130 161
f 130 131 161
f 131 132 161
f 132 133 161
f 133 134 161
f 134 135 161
f 135 136 161
f 136 137 161
f 137 138 161
f 138 139 161
f 139 140 161
f 140 141 161
f 141 142 161
f 142 143 161
f 143 144 161
f 144 145 161
f 145 146 161
f 146 147 161
f 147 148 161
f 148 149 161
f 149 150 161
f 150 151 161
f 151 152 161
f 152 153 161
f 153 154 161
f 154 155 161
f 155 156 161
f 156 157 161
f 157 158 161
f 158 159 161
f 159 160 161
f 160 129 161
