# SPDX-FileCopyrightText: 2026 Lampway contributors
# SPDX-License-Identifier: GPL-3.0-or-later
v 0.156020987 0.000000000 1.330784060
v 0.158102238 0.016823238 1.331541573
v 0.164204158 0.032500000 1.333762490
v 0.173910911 0.045961941 1.337295459
v 0.186560997 0.056291651 1.341899714
v 0.201292335 0.062785179 1.347261483
v 0.217101007 0.065000000 1.353015369
v 0.232909680 0.062785179 1.358769255
v 0.247641017 0.056291651 1.364131024
v 0.260291104 0.045961941 1.368735279
v 0.269997856 0.032500000 1.372268248
v 0.276099776 0.016823238 1.374489165
v 0.278181028 0.000000000 1.375246678
v 0.276099776 -0.016823238 1.374489165
v 0.269997856 -0.032500000 1.372268248
v 0.260291104 -0.045961941 1.368735279
v 0.247641017 -0.056291651 1.364131024
v 0.232909680 -0.062785179 1.358769255
v 0.217101007 -0.065000000 1.353015369
v 0.201292335 -0.062785179 1.347261483
v 0.186560997 -0.056291651 1.341899714
v 0.173910911 -0.045961941 1.337295459
v 0.164204158 -0.032500000 1.333762490
v 0.158102238 -0.016823238 1.331541573
v 0.163172317 0.000000000 1.311135941
v 0.165253568 0.016823238 1.311893455
v 0.171355488 0.032500000 1.314114372
v 0.181062241 0.045961941 1.317647341
v 0.193712327 0.056291651 1.322251596
v 0.208443665 0.062785179 1.327613364
v 0.224252337 0.065000000 1.333367251
v 0.240061010 0.062785179 1.339121137
v 0.254792348 0.056291651 1.344482905
v 0.267442434 0.045961941 1.349087160
v 0.277149187 0.032500000 1.352620129
v 0.283251107 0.016823238 1.354841046
v 0.285332358 0.000000000 1.355598560
v 0.283251107 -0.016823238 1.354841046
v 0.277149187 -0.032500000 1.352620129
v 0.267442434 -0.045961941 1.349087160
v 0.254792348 -0.056291651 1.344482905
v 0.240061010 -0.062785179 1.339121137
v 0.224252337 -0.065000000 1.333367251
v 0.208443665 -0.062785179 1.327613364
v 0.193712327 -0.056291651 1.322251596
v 0.181062241 -0.045961941 1.317647341
v 0.171355488 -0.032500000 1.314114372
v 0.165253568 -0.016823238 1.311893455
v 0.170323647 0.000000000 1.291487823
v 0.172404899 0.016823238 1.292245336
v 0.178506818 0.032500000 1.294466253
v 0.188213571 0.045961941 1.297999223
v 0.200863658 0.056291651 1.302603477
v 0.215594995 0.062785179 1.307965246
v 0.231403668 0.065000000 1.313719132
v 0.247212340 0.062785179 1.319473018
v 0.261943678 0.056291651 1.324834787
v 0.274593764 0.045961941 1.329439042
v 0.284300517 0.032500000 1.332972011
v 0.290402437 0.016823238 1.335192928
v 0.292483688 0.000000000 1.335950441
v 0.290402437 -0.016823238 1.335192928
v 0.284300517 -0.032500000 1.332972011
v 0.274593764 -0.045961941 1.329439042
v 0.261943678 -0.056291651 1.324834787
v 0.247212340 -0.062785179 1.319473018
v 0.231403668 -0.065000000 1.313719132
v 0.215594995 -0.062785179 1.307965246
v 0.200863658 -0.056291651 1.302603477
v 0.188213571 -0.045961941 1.297999223
v 0.178506818 -0.032500000 1.294466253
v 0.172404899 -0.016823238 1.292245336
v 0.177474978 0.000000000 1.271839704
v 0.179556229 0.016823238 1.272597218
v 0.185658149 0.032500000 1.274818135
v 0.195364901 0.045961941 1.278351104
v 0.208014988 0.056291651 1.282955359
v 0.222746325 0.062785179 1.288317127
v 0.238554998 0.065000000 1.294071014
v 0.254363671 0.062785179 1.299824900
v 0.269095008 0.056291651 1.305186668
v 0.281745095 0.045961941 1.309790923
v 0.291451847 0.032500000 1.313323892
v 0.297553767 0.016823238 1.315544809
v 0.299635018 0.000000000 1.316302323
v 0.297553767 -0.016823238 1.315544809
v 0.291451847 -0.032500000 1.313323892
v 0.281745095 -0.045961941 1.309790923
v 0.269095008 -0.056291651 1.305186668
v 0.254363671 -0.062785179 1.299824900
v 0.238554998 -0.065000000 1.294071014
v 0.222746325 -0.062785179 1.288317127
v 0.208014988 -0.056291651 1.282955359
v 0.195364901 -0.045961941 1.278351104
v 0.185658149 -0.032500000 1.274818135
v 0.179556229 -0.016823238 1.272597218
v 0.184626308 0.000000000 1.252191586
v 0.186707559 0.016823238 1.252949099
v 0.192809479 0.032500000 1.255170017
v 0.202516232 0.045961941 1.258702986
v 0.215166318 0.056291651 1.263307241
v 0.229897656 0.062785179 1.268669009
v 0.245706328 0.065000000 1.274422895
v 0.261515001 0.062785179 1.280176781
v 0.276246338 0.056291651 1.285538550
v 0.288896425 0.045961941 1.290142805
v 0.298603178 0.032500000 1.293675774
v 0.304705097 0.016823238 1.295896691
v 0.306786349 0.000000000 1.296654205
v 0.304705097 -0.016823238 1.295896691
v 0.298603178 -0.032500000 1.293675774
v 0.288896425 -0.045961941 1.290142805
v 0.276246338 -0.056291651 1.285538550
v 0.261515001 -0.062785179 1.280176781
v 0.245706328 -0.065000000 1.274422895
v 0.229897656 -0.062785179 1.268669009
v 0.215166318 -0.056291651 1.263307241
v 0.202516232 -0.045961941 1.258702986
v 0.192809479 -0.032500000 1.255170017
v 0.186707559 -0.016823238 1.252949099
v 0.191777638 0.000000000 1.232543467
v 0.193858889 0.016823238 1.233300981
v 0.199960809 0.032500000 1.235521898
v 0.209667562 0.045961941 1.239054867
v 0.222317648 0.056291651 1.243659122
v 0.237048986 0.062785179 1.249020891
v 0.252857659 0.065000000 1.254774777
v 0.268666331 0.062785179 1.260528663
v 0.283397669 0.056291651 1.265890431
v 0.296047755 0.045961941 1.270494686
v 0.305754508 0.032500000 1.274027655
v 0.311856428 0.016823238 1.276248573
v 0.313937679 0.000000000 1.277006086
v 0.311856428 -0.016823238 1.276248573
v 0.305754508 -0.032500000 1.274027655
v 0.296047755 -0.045961941 1.270494686
v 0.283397669 -0.056291651 1.265890431
v 0.268666331 -0.062785179 1.260528663
v 0.252857659 -0.065000000 1.254774777
v 0.237048986 -0.062785179 1.249020891
v 0.222317648 -0.056291651 1.243659122
v 0.209667562 -0.045961941 1.239054867
v 0.199960809 -0.032500000 1.235521898
v 0.193858889 -0.016823238 1.233300981
v 0.198928968 0.000000000 1.212895349
v 0.201010220 0.016823238 1.213652863
v 0.207112139 0.032500000 1.215873780
v 0.216818892 0.045961941 1.219406749
v 0.229468979 0.056291651 1.224011004
v 0.244200316 0.062785179 1.229372772
v 0.260008989 0.065000000 1.235126658
v 0.275817661 0.062785179 1.240880545
v 0.290548999 0.056291651 1.246242313
v 0.303199085 0.045961941 1.250846568
v 0.312905838 0.032500000 1.254379537
v 0.319007758 0.016823238 1.256600454
v 0.321089009 0.000000000 1.257357968
v 0.319007758 -0.016823238 1.256600454
v 0.312905838 -0.032500000 1.254379537
v 0.303199085 -0.045961941 1.250846568
v 0.290548999 -0.056291651 1.246242313
v 0.275817661 -0.062785179 1.240880545
v 0.260008989 -0.065000000 1.235126658
v 0.244200316 -0.062785179 1.229372772
v 0.229468979 -0.056291651 1.224011004
v 0.216818892 -0.045961941 1.219406749
v 0.207112139 -0.032500000 1.215873780
v 0.201010220 -0.016823238 1.213652863
v 0.206080299 0.000000000 1.193247231
v 0.208161550 0.016823238 1.194004744
v 0.214263470 0.032500000 1.196225661
v 0.223970222 0.045961941 1.199758630
v 0.236620309 0.056291651 1.204362885
v 0.251351647 0.062785179 1.209724654
v 0.267160319 0.065000000 1.215478540
v 0.282968992 0.062785179 1.221232426
v 0.297700329 0.056291651 1.226594195
v 0.310350416 0.045961941 1.231198449
v 0.320057168 0.032500000 1.234731419
v 0.326159088 0.016823238 1.236952336
v 0.328240339 0.000000000 1.237709849
v 0.326159088 -0.016823238 1.236952336
v 0.320057168 -0.032500000 1.234731419
v 0.310350416 -0.045961941 1.231198449
v 0.297700329 -0.056291651 1.226594195
v 0.282968992 -0.062785179 1.221232426
v 0.267160319 -0.065000000 1.215478540
v 0.251351647 -0.062785179 1.209724654
v 0.236620309 -0.056291651 1.204362885
v 0.223970222 -0.045961941 1.199758630
v 0.214263470 -0.032500000 1.196225661
v 0.208161550 -0.016823238 1.194004744
v 0.213231629 0.000000000 1.173599112
v 0.215312880 0.016823238 1.174356626
v 0.221414800 0.032500000 1.176577543
v 0.231121553 0.045961941 1.180110512
v 0.243771639 0.056291651 1.184714767
v 0.258502977 0.062785179 1.190076535
v 0.274311649 0.065000000 1.195830421
v 0.290120322 0.062785179 1.201584308
v 0.304851659 0.056291651 1.206946076
v 0.317501746 0.045961941 1.211550331
v 0.327208499 0.032500000 1.215083300
v 0.333310418 0.016823238 1.217304217
v 0.335391670 0.000000000 1.218061731
v 0.333310418 -0.016823238 1.217304217
v 0.327208499 -0.032500000 1.215083300
v 0.317501746 -0.045961941 1.211550331
v 0.304851659 -0.056291651 1.206946076
v 0.290120322 -0.062785179 1.201584308
v 0.274311649 -0.065000000 1.195830421
v 0.258502977 -0.062785179 1.190076535
v 0.243771639 -0.056291651 1.184714767
v 0.231121553 -0.045961941 1.180110512
v 0.221414800 -0.032500000 1.176577543
v 0.215312880 -0.016823238 1.174356626
v 0.220382959 0.000000000 1.153950994
v 0.222464210 0.016823238 1.154708507
v 0.228566130 0.032500000 1.156929424
v 0.238272883 0.045961941 1.160462393
v 0.250922969 0.056291651 1.165066648
v 0.265654307 0.062785179 1.170428417
v 0.281462980 0.065000000 1.176182303
v 0.297271652 0.062785179 1.181936189
v 0.312002990 0.056291651 1.187297958
v 0.324653076 0.045961941 1.191902213
v 0.334359829 0.032500000 1.195435182
v 0.340461749 0.016823238 1.197656099
v 0.342543000 0.000000000 1.198413612
v 0.340461749 -0.016823238 1.197656099
v 0.334359829 -0.032500000 1.195435182
v 0.324653076 -0.045961941 1.191902213
v 0.312002990 -0.056291651 1.187297958
v 0.297271652 -0.062785179 1.181936189
v 0.281462980 -0.065000000 1.176182303
v 0.265654307 -0.062785179 1.170428417
v 0.250922969 -0.056291651 1.165066648
v 0.238272883 -0.045961941 1.160462393
v 0.228566130 -0.032500000 1.156929424
v 0.222464210 -0.016823238 1.154708507
v 0.227534290 0.000000000 1.134302875
v 0.229615541 0.016823238 1.135060389
v 0.235717461 0.032500000 1.137281306
v 0.245424213 0.045961941 1.140814275
v 0.258074300 0.056291651 1.145418530
v 0.272805637 0.062785179 1.150780298
v 0.288614310 0.065000000 1.156534185
v 0.304422982 0.062785179 1.162288071
v 0.319154320 0.056291651 1.167649839
v 0.331804406 0.045961941 1.172254094
v 0.341511159 0.032500000 1.175787063
v 0.347613079 0.016823238 1.178007980
v 0.349694330 0.000000000 1.178765494
v 0.347613079 -0.016823238 1.178007980
v 0.341511159 -0.032500000 1.175787063
v 0.331804406 -0.045961941 1.172254094
v 0.319154320 -0.056291651 1.167649839
v 0.304422982 -0.062785179 1.162288071
v 0.288614310 -0.065000000 1.156534185
v 0.272805637 -0.062785179 1.150780298
v 0.258074300 -0.056291651 1.145418530
v 0.245424213 -0.045961941 1.140814275
v 0.235717461 -0.032500000 1.137281306
v 0.229615541 -0.016823238 1.135060389
v 0.234685620 0.000000000 1.114654757
v 0.236766871 0.016823238 1.115412270
v 0.242868791 0.032500000 1.117633188
v 0.252575544 0.045961941 1.121166157
v 0.265225630 0.056291651 1.125770412
v 0.279956968 0.062785179 1.131132180
v 0.295765640 0.065000000 1.136886066
v 0.311574313 0.062785179 1.142639952
v 0.326305650 0.056291651 1.148001721
v 0.338955737 0.045961941 1.152605976
v 0.348662489 0.032500000 1.156138945
v 0.354764409 0.016823238 1.158359862
v 0.356845660 0.000000000 1.159117375
v 0.354764409 -0.016823238 1.158359862
v 0.348662489 -0.032500000 1.156138945
v 0.338955737 -0.045961941 1.152605976
v 0.326305650 -0.056291651 1.148001721
v 0.311574313 -0.062785179 1.142639952
v 0.295765640 -0.065000000 1.136886066
v 0.279956968 -0.062785179 1.131132180
v 0.265225630 -0.056291651 1.125770412
v 0.252575544 -0.045961941 1.121166157
v 0.242868791 -0.032500000 1.117633188
v 0.236766871 -0.016823238 1.115412270
f 1 2 26 25
f 2 3 27 26
f 3 4 28 27
f 4 5 29 28
f 5 6 30 29
f 6 7 31 30
f 7 8 32 31
f 8 9 33 32
f 9 10 34 33
f 10 11 35 34
f 11 12 36 35
f 12 13 37 36
f 13 14 38 37
f 14 15 39 38
f 15 16 40 39
f 16 17 41 40
f 17 18 42 41
f 18 19 43 42
f 19 20 44 43
f 20 21 45 44
f 21 22 46 45
f 22 23 47 46
f 23 24 48 47
f 24 1 25 48
f 25 26 50 49
f 26 27 51 50
f 27 28 52 51
f 28 29 53 52
f 29 30 54 53
f 30 31 55 54
f 31 32 56 55
f 32 33 57 56
f 33 34 58 57
f 34 35 59 58
f 35 36 60 59
f 36 37 61 60
f 37 38 62 61
f 38 39 63 62
f 39 40 64 63
f 40 41 65 64
f 41 42 66 65
f 42 43 67 66
f 43 44 68 67
f 44 45 69 68
f 45 46 70 69
f 46 47 71 70
f 47 48 72 71
f 48 25 49 72
f 49 50 74 73
f 50 51 75 74
f 51 52 76 75
f 52 53 77 76
f 53 54 78 77
f 54 55 79 78
f 55 56 80 79
f 56 57 81 80
f 57 58 82 81
f 58 59 83 82
f 59 60 84 83
f 60 61 85 84
f 61 62 86 85
f 62 63 87 86
f 63 64 88 87
f 64 65 89 88
f 65 66 90 89
f 66 67 91 90
f 67 68 92 91
f 68 69 93 92
f 69 70 94 93
f 70 71 95 94
f 71 72 96 95
f 72 49 73 96
f 73 74 98 97
f 74 75 99 98
f 75 76 100 99
f 76 77 101 100
f 77 78 102 101
f 78 79 103 102
f 79 80 104 103
f 80 81 105 104
f 81 82 106 105
f 82 83 107 106
f 83 84 108 107
f 84 85 109 108
f 85 86 110 109
f 86 87 111 110
f 87 88 112 111
f 88 89 113 112
f 89 90 114 113
f 90 91 115 114
f 91 92 116 115
f 92 93 117 116
f 93 94 118 117
f 94 95 119 118
f 95 96 120 119
f 96 73 97 120
f 97 98 122 121
f 98 99 123 122
f 99 100 124 123
f 100 101 125 124
f 101 102 126 125
f 102 103 127 126
f 103 104 128 127
f 104 105 129 128
f 105 106 130 129
f 106 107 131 130
f 107 108 132 131
f 108 109 133 132
f 109 110 134 133
f 110 111 135 134
f 111 112 136 135
f 112 113 137 136
f 113 114 138 137
f 114 115 139 138
f 115 116 140 139
f 116 117 141 140
f 117 118 142 141
f 118 119 143 142
f 119 120 144 143
f 120 97 121 144
f 121 122 146 145
f 122 123 147 146
f 123 124 148 147
f 124 125 149 148
f 125 126 150 149
f 126 127 151 150
f 127 128 152 151
f 128 129 153 152
f 129 130 154 153
f 130 131 155 154
f 131 132 156 155
f 132 133 157 156
f 133 134 158 157
f 134 135 159 158
f 135 136 160 159
f 136 137 161 160
f 137 138 162 161
f 138 139 163 162
f 139 140 164 163
f 140 141 165 164
f 141 142 166 165
f 142 143 167 166
f 143 144 168 167
f 144 121 145 168
f 145 146 170 169
f 146 147 171 170
f 147 148 172 171
f 148 149 173 172
f 149 150 174 173
f 150 151 175 174
f 151 152 176 175
f 152 153 177 176
f 153 154 178 177
f 154 155 179 178
f 155 156 180 179
f 156 157 181 180
f 157 158 182 181
f 158 159 183 182
f 159 160 184 183
f 160 161 185 184
f 161 162 186 185
f 162 163 187 186
f 163 164 188 187
f 164 165 189 188
f 165 166 190 189
f 166 167 191 190
f 167 168 192 191
f 168 145 169 192
f 169 170 194 193
f 170 171 195 194
f 171 172 196 195
f 172 173 197 196
f 173 174 198 197
f 174 175 199 198
f 175 176 200 199
f 176 177 201 200
f 177 178 202 201
f 178 179 203 202
f 179 180 204 203
f 180 181 205 204
f 181 182 206 205
f 182 183 207 206
f 183 184 208 207
f 184 185 209 208
f 185 186 210 209
f 186 187 211 210
f 187 188 212 211
f 188 189 213 212
f 189 190 214 213
f 190 191 215 214
f 191 192 216 215
f 192 169 193 216
f 193 194 218 217
f 194 195 219 218
f 195 196 220 219
f 196 197 221 220
f 197 198 222 221
f 198 199 223 222
f 199 200 224 223
f 200 201 225 224
f 201 202 226 225
f 202 203 227 226
f 203 204 228 227
f 204 205 229 228
f 205 206 230 229
f 206 207 231 230
f 207 208 232 231
f 208 209 233 232
f 209 210 234 233
f 210 211 235 234
f 211 212 236 235
f 212 213 237 236
f 213 214 238 237
f 214 215 239 238
f 215 216 240 239
f 216 193 217 240
f 217 218 242 241
f 218 219 243 242
f 219 220 244 243
f 220 221 245 244
f 221 222 246 245
f 222 223 247 246
f 223 224 248 247
f 224 225 249 248
f 225 226 250 249
f 226 227 251 250
f 227 228 252 251
f 228 229 253 252
f 229 230 254 253
f 230 231 255 254
f 231 232 256 255
f 232 233 257 256
f 233 234 258 257
f 234 235 259 258
f 235 236 260 259
f 236 237 261 260
f 237 238 262 261
f 238 239 263 262
f 239 240 264 263
f 240 217 241 264
f 241 242 266 265
f 242 243 267 266
f 243 244 268 267
f 244 245 269 268
f 245 246 270 269
f 246 247 271 270
f 247 248 272 271
f 248 249 273 272
f 249 250 274 273
f 250 251 275 274
f 251 252 276 275
f 252 253 277 276
f 253 254 278 277
f 254 255 279 278
f 255 256 280 279
f 256 257 281 280
f 257 258 282 281
f 258 259 283 282
f 259 260 284 283
f 260 261 285 284
f 261 262 286 285
f 262 263 287 286
f 263 264 288 287
f 264 241 265 288
