# SPDX-FileCopyrightText: 2026 Lampway contributors
# SPDX-License-Identifier: GPL-3.0-or-later
v 0.197000000 0.040000000 1.000000000
v 0.196296019 0.051766025 1.000000000
v 0.194189434 0.063442504 1.000000000
v 0.190696278 0.074940571 1.000000000
v 0.185843135 0.086172719 1.000000000
v 0.179666941 0.097053465 1.000000000
v 0.172214700 0.107500000 1.000000000
v 0.163543128 0.117432819 1.000000000
v 0.153718222 0.126776327 1.000000000
v 0.142814755 0.135459415 1.000000000
v 0.130915708 0.143416000 1.000000000
v 0.118111641 0.150585526 1.000000000
v 0.104500000 0.156913430 1.000000000
v 0.090184378 0.162351551 1.000000000
v 0.075273727 0.166858504 1.000000000
v 0.059881523 0.170399987 1.000000000
v 0.044124913 0.172949047 1.000000000
v 0.028123812 0.174486284 1.000000000
v 0.012000000 0.175000000 1.000000000
v -0.004123812 0.174486284 1.000000000
v -0.020124913 0.172949047 1.000000000
v -0.035881523 0.170399987 1.000000000
v -0.051273727 0.166858504 1.000000000
v -0.066184378 0.162351551 1.000000000
v -0.080500000 0.156913430 1.000000000
v -0.094111641 0.150585526 1.000000000
v -0.106915708 0.143416000 1.000000000
v -0.118814755 0.135459415 1.000000000
v -0.129718222 0.126776327 1.000000000
v -0.139543128 0.117432819 1.000000000
v -0.148214700 0.107500000 1.000000000
v -0.155666941 0.097053465 1.000000000
v -0.161843135 0.086172719 1.000000000
v -0.166696278 0.074940571 1.000000000
v -0.170189434 0.063442504 1.000000000
v -0.172296019 0.051766025 1.000000000
v -0.173000000 0.040000000 1.000000000
v -0.172296019 0.028233975 1.000000000
v -0.170189434 0.016557496 1.000000000
v -0.166696278 0.005059429 1.000000000
v -0.161843135 -0.006172719 1.000000000
v -0.155666941 -0.017053465 1.000000000
v -0.148214700 -0.027500000 1.000000000
v -0.139543128 -0.037432819 1.000000000
v -0.129718222 -0.046776327 1.000000000
v -0.118814755 -0.055459415 1.000000000
v -0.106915708 -0.063416000 1.000000000
v -0.094111641 -0.070585526 1.000000000
v -0.080500000 -0.076913430 1.000000000
v -0.066184378 -0.082351551 1.000000000
v -0.051273727 -0.086858504 1.000000000
v -0.035881523 -0.090399987 1.000000000
v -0.020124913 -0.092949047 1.000000000
v -0.004123812 -0.094486284 1.000000000
v 0.012000000 -0.095000000 1.000000000
v 0.028123812 -0.094486284 1.000000000
v 0.044124913 -0.092949047 1.000000000
v 0.059881523 -0.090399987 1.000000000
v 0.075273727 -0.086858504 1.000000000
v 0.090184378 -0.082351551 1.000000000
v 0.104500000 -0.076913430 1.000000000
v 0.118111641 -0.070585526 1.000000000
v 0.130915708 -0.063416000 1.000000000
v 0.142814755 -0.055459415 1.000000000
v 0.153718222 -0.046776327 1.000000000
v 0.163543128 -0.037432819 1.000000000
v 0.172214700 -0.027500000 1.000000000
v 0.179666941 -0.017053465 1.000000000
v 0.185843135 -0.006172719 1.000000000
v 0.190696278 0.005059429 1.000000000
v 0.194189434 0.016557496 1.000000000
v 0.196296019 0.028233975 1.000000000
v 0.197000000 0.040000000 1.050000000
v 0.196296019 0.051766025 1.050000000
v 0.194189434 0.063442504 1.050000000
v 0.190696278 0.074940571 1.050000000
v 0.185843135 0.086172719 1.050000000
v 0.179666941 0.097053465 1.050000000
v 0.172214700 0.107500000 1.050000000
v 0.163543128 0.117432819 1.050000000
v 0.153718222 0.126776327 1.050000000
v 0.142814755 0.135459415 1.050000000
v 0.130915708 0.143416000 1.050000000
v 0.118111641 0.150585526 1.050000000
v 0.104500000 0.156913430 1.050000000
v 0.090184378 0.162351551 1.050000000
v 0.075273727 0.166858504 1.050000000
v 0.059881523 0.170399987 1.050000000
v 0.044124913 0.172949047 1.050000000
v 0.028123812 0.174486284 1.050000000
v 0.012000000 0.175000000 1.050000000
v -0.004123812 0.174486284 1.050000000
v -0.020124913 0.172949047 1.050000000
v -0.035881523 0.170399987 1.050000000
v -0.051273727 0.166858504 1.050000000
v -0.066184378 0.162351551 1.050000000
v -0.080500000 0.156913430 1.050000000
v -0.094111641 0.150585526 1.050000000
v -0.106915708 0.143416000 1.050000000
v -0.118814755 0.135459415 1.050000000
v -0.129718222 0.126776327 1.050000000
v -0.139543128 0.117432819 1.050000000
v -0.148214700 0.107500000 1.050000000
v -0.155666941 0.097053465 1.050000000
v -0.161843135 0.086172719 1.050000000
v -0.166696278 0.074940571 1.050000000
v -0.170189434 0.063442504 1.050000000
v -0.172296019 0.051766025 1.050000000
v -0.173000000 0.040000000 1.050000000
v -0.172296019 0.028233975 1.050000000
v -0.170189434 0.016557496 1.050000000
v -0.166696278 0.005059429 1.050000000
v -0.161843135 -0.006172719 1.050000000
v -0.155666941 -0.017053465 1.050000000
v -0.148214700 -0.027500000 1.050000000
v -0.139543128 -0.037432819 1.050000000
v -0.129718222 -0.046776327 1.050000000
v -0.118814755 -0.055459415 1.050000000
v -0.106915708 -0.063416000 1.050000000
v -0.094111641 -0.070585526 1.050000000
v -0.080500000 -0.076913430 1.050000000
v -0.066184378 -0.082351551 1.050000000
v -0.051273727 -0.086858504 1.050000000
v -0.035881523 -0.090399987 1.050000000
v -0.020124913 -0.092949047 1.050000000
v -0.004123812 -0.094486284 1.050000000
v 0.012000000 -0.095000000 1.050000000
v 0.028123812 -0.094486284 1.050000000
v 0.044124913 -0.092949047 1.050000000
v 0.059881523 -0.090399987 1.050000000
v 0.075273727 -0.086858504 1.050000000
v 0.090184378 -0.082351551 1.050000000
v 0.104500000 -0.076913430 1.050000000
v 0.118111641 -0.070585526 1.050000000
v 0.130915708 -0.063416000 1.050000000
v 0.142814755 -0.055459415 1.050000000
v 0.153718222 -0.046776327 1.050000000
v 0.163543128 -0.037432819 1.050000000
v 0.172214700 -0.027500000 1.050000000
v 0.179666941 -0.017053465 1.050000000
v 0.185843135 -0.006172719 1.050000000
v 0.190696278 0.005059429 1.050000000
v 0.194189434 0.016557496 1.050000000
v 0.196296019 0.028233975 1.050000000
v 0.197000000 0.040000000 1.100000000
v 0.196296019 0.051766025 1.100000000
v 0.194189434 0.063442504 1.100000000
v 0.190696278 0.074940571 1.100000000
v 0.185843135 0.086172719 1.100000000
v 0.179666941 0.097053465 1.100000000
v 0.172214700 0.107500000 1.100000000
v 0.163543128 0.117432819 1.100000000
v 0.153718222 0.126776327 1.100000000
v 0.142814755 0.135459415 1.100000000
v 0.130915708 0.143416000 1.100000000
v 0.118111641 0.150585526 1.100000000
v 0.104500000 0.156913430 1.100000000
v 0.090184378 0.162351551 1.100000000
v 0.075273727 0.166858504 1.100000000
v 0.059881523 0.170399987 1.100000000
v 0.044124913 0.172949047 1.100000000
v 0.028123812 0.174486284 1.100000000
v 0.012000000 0.175000000 1.100000000
v -0.004123812 0.174486284 1.100000000
v -0.020124913 0.172949047 1.100000000
v -0.035881523 0.170399987 1.100000000
v -0.051273727 0.166858504 1.100000000
v -0.066184378 0.162351551 1.100000000
v -0.080500000 0.156913430 1.100000000
v -0.094111641 0.150585526 1.100000000
v -0.106915708 0.143416000 1.100000000
v -0.118814755 0.135459415 1.100000000
v -0.129718222 0.126776327 1.100000000
v -0.139543128 0.117432819 1.100000000
v -0.148214700 0.107500000 1.100000000
v -0.155666941 0.097053465 1.100000000
v -0.161843135 0.086172719 1.100000000
v -0.166696278 0.074940571 1.100000000
v -0.170189434 0.063442504 1.100000000
v -0.172296019 0.051766025 1.100000000
v -0.173000000 0.040000000 1.100000000
v -0.172296019 0.028233975 1.100000000
v -0.170189434 0.016557496 1.100000000
v -0.166696278 0.005059429 1.100000000
v -0.161843135 -0.006172719 1.100000000
v -0.155666941 -0.017053465 1.100000000
v -0.148214700 -0.027500000 1.100000000
v -0.139543128 -0.037432819 1.100000000
v -0.129718222 -0.046776327 1.100000000
v -0.118814755 -0.055459415 1.100000000
v -0.106915708 -0.063416000 1.100000000
v -0.094111641 -0.070585526 1.100000000
v -0.080500000 -0.076913430 1.100000000
v -0.066184378 -0.082351551 1.100000000
v -0.051273727 -0.086858504 1.100000000
v -0.035881523 -0.090399987 1.100000000
v -0.020124913 -0.092949047 1.100000000
v -0.004123812 -0.094486284 1.100000000
v 0.012000000 -0.095000000 1.100000000
v 0.028123812 -0.094486284 1.100000000
v 0.044124913 -0.092949047 1.100000000
v 0.059881523 -0.090399987 1.100000000
v 0.075273727 -0.086858504 1.100000000
v 0.090184378 -0.082351551 1.100000000
v 0.104500000 -0.076913430 1.100000000
v 0.118111641 -0.070585526 1.100000000
v 0.130915708 -0.063416000 1.100000000
v 0.142814755 -0.055459415 1.100000000
v 0.153718222 -0.046776327 1.100000000
v 0.163543128 -0.037432819 1.100000000
v 0.172214700 -0.027500000 1.100000000
v 0.179666941 -0.017053465 1.100000000
v 0.185843135 -0.006172719 1.100000000
v 0.190696278 0.005059429 1.100000000
v 0.194189434 0.016557496 1.100000000
v 0.196296019 0.028233975 1.100000000
v 0.197000000 0.040000000 1.150000000
v 0.196296019 0.051766025 1.150000000
v 0.194189434 0.063442504 1.150000000
v 0.190696278 0.074940571 1.150000000
v 0.185843135 0.086172719 1.150000000
v 0.179666941 0.097053465 1.150000000
v 0.172214700 0.107500000 1.150000000
v 0.163543128 0.117432819 1.150000000
v 0.153718222 0.126776327 1.150000000
v 0.142814755 0.135459415 1.150000000
v 0.130915708 0.143416000 1.150000000
v 0.118111641 0.150585526 1.150000000
v 0.104500000 0.156913430 1.150000000
v 0.090184378 0.162351551 1.150000000
v 0.075273727 0.166858504 1.150000000
v 0.059881523 0.170399987 1.150000000
v 0.044124913 0.172949047 1.150000000
v 0.028123812 0.174486284 1.150000000
v 0.012000000 0.175000000 1.150000000
v -0.004123812 0.174486284 1.150000000
v -0.020124913 0.172949047 1.150000000
v -0.035881523 0.170399987 1.150000000
v -0.051273727 0.166858504 1.150000000
v -0.066184378 0.162351551 1.150000000
v -0.080500000 0.156913430 1.150000000
v -0.094111641 0.150585526 1.150000000
v -0.106915708 0.143416000 1.150000000
v -0.118814755 0.135459415 1.150000000
v -0.129718222 0.126776327 1.150000000
v -0.139543128 0.117432819 1.150000000
v -0.148214700 0.107500000 1.150000000
v -0.155666941 0.097053465 1.150000000
v -0.161843135 0.086172719 1.150000000
v -0.166696278 0.074940571 1.150000000
v -0.170189434 0.063442504 1.150000000
v -0.172296019 0.051766025 1.150000000
v -0.173000000 0.040000000 1.150000000
v -0.172296019 0.028233975 1.150000000
v -0.170189434 0.016557496 1.150000000
v -0.166696278 0.005059429 1.150000000
v -0.161843135 -0.006172719 1.150000000
v -0.155666941 -0.017053465 1.150000000
v -0.148214700 -0.027500000 1.150000000
v -0.139543128 -0.037432819 1.150000000
v -0.129718222 -0.046776327 1.150000000
v -0.118814755 -0.055459415 1.150000000
v -0.106915708 -0.063416000 1.150000000
v -0.094111641 -0.070585526 1.150000000
v -0.080500000 -0.076913430 1.150000000
v -0.066184378 -0.082351551 1.150000000
v -0.051273727 -0.086858504 1.150000000
v -0.035881523 -0.090399987 1.150000000
v -0.020124913 -0.092949047 1.150000000
v -0.004123812 -0.094486284 1.150000000
v 0.012000000 -0.095000000 1.150000000
v 0.028123812 -0.094486284 1.150000000
v 0.044124913 -0.092949047 1.150000000
v 0.059881523 -0.090399987 1.150000000
v 0.075273727 -0.086858504 1.150000000
v 0.090184378 -0.082351551 1.150000000
v 0.104500000 -0.076913430 1.150000000
v 0.118111641 -0.070585526 1.150000000
v 0.130915708 -0.063416000 1.150000000
v 0.142814755 -0.055459415 1.150000000
v 0.153718222 -0.046776327 1.150000000
v 0.163543128 -0.037432819 1.150000000
v 0.172214700 -0.027500000 1.150000000
v 0.179666941 -0.017053465 1.150000000
v 0.185843135 -0.006172719 1.150000000
v 0.190696278 0.005059429 1.150000000
v 0.194189434 0.016557496 1.150000000
v 0.196296019 0.028233975 1.150000000
v 0.197000000 0.040000000 1.200000000
v 0.196296019 0.051766025 1.200000000
v 0.194189434 0.063442504 1.200000000
v 0.190696278 0.074940571 1.200000000
v 0.185843135 0.086172719 1.200000000
v 0.179666941 0.097053465 1.200000000
v 0.172214700 0.107500000 1.200000000
v 0.163543128 0.117432819 1.200000000
v 0.153718222 0.126776327 1.200000000
v 0.142814755 0.135459415 1.200000000
v 0.130915708 0.143416000 1.200000000
v 0.118111641 0.150585526 1.200000000
v 0.104500000 0.156913430 1.200000000
v 0.090184378 0.162351551 1.200000000
v 0.075273727 0.166858504 1.200000000
v 0.059881523 0.170399987 1.200000000
v 0.044124913 0.172949047 1.200000000
v 0.028123812 0.174486284 1.200000000
v 0.012000000 0.175000000 1.200000000
v -0.004123812 0.174486284 1.200000000
v -0.020124913 0.172949047 1.200000000
v -0.035881523 0.170399987 1.200000000
v -0.051273727 0.166858504 1.200000000
v -0.066184378 0.162351551 1.200000000
v -0.080500000 0.156913430 1.200000000
v -0.094111641 0.150585526 1.200000000
v -0.106915708 0.143416000 1.200000000
v -0.118814755 0.135459415 1.200000000
v -0.129718222 0.126776327 1.200000000
v -0.139543128 0.117432819 1.200000000
v -0.148214700 0.107500000 1.200000000
v -0.155666941 0.097053465 1.200000000
v -0.161843135 0.086172719 1.200000000
v -0.166696278 0.074940571 1.200000000
v -0.170189434 0.063442504 1.200000000
v -0.172296019 0.051766025 1.200000000
v -0.173000000 0.040000000 1.200000000
v -0.172296019 0.028233975 1.200000000
v -0.170189434 0.016557496 1.200000000
v -0.166696278 0.005059429 1.200000000
v -0.161843135 -0.006172719 1.200000000
v -0.155666941 -0.017053465 1.200000000
v -0.148214700 -0.027500000 1.200000000
v -0.139543128 -0.037432819 1.200000000
v -0.129718222 -0.046776327 1.200000000
v -0.118814755 -0.055459415 1.200000000
v -0.106915708 -0.063416000 1.200000000
v -0.094111641 -0.070585526 1.200000000
v -0.080500000 -0.076913430 1.200000000
v -0.066184378 -0.082351551 1.200000000
v -0.051273727 -0.086858504 1.200000000
v -0.035881523 -0.090399987 1.200000000
v -0.020124913 -0.092949047 1.200000000
v -0.004123812 -0.094486284 1.200000000
v 0.012000000 -0.095000000 1.200000000
v 0.028123812 -0.094486284 1.200000000
v 0.044124913 -0.092949047 1.200000000
v 0.059881523 -0.090399987 1.200000000
v 0.075273727 -0.086858504 1.200000000
v 0.090184378 -0.082351551 1.200000000
v 0.104500000 -0.076913430 1.200000000
v 0.118111641 -0.070585526 1.200000000
v 0.130915708 -0.063416000 1.200000000
v 0.142814755 -0.055459415 1.200000000
v 0.153718222 -0.046776327 1.200000000
v 0.163543128 -0.037432819 1.200000000
v 0.172214700 -0.027500000 1.200000000
v 0.179666941 -0.017053465 1.200000000
v 0.185843135 -0.006172719 1.200000000
v 0.190696278 0.005059429 1.200000000
v 0.194189434 0.016557496 1.200000000
v 0.196296019 0.028233975 1.200000000
v 0.197000000 0.040000000 1.250000000
v 0.196296019 0.051766025 1.250000000
v 0.194189434 0.063442504 1.250000000
v 0.190696278 0.074940571 1.250000000
v 0.185843135 0.086172719 1.250000000
v 0.179666941 0.097053465 1.250000000
v 0.172214700 0.107500000 1.250000000
v 0.163543128 0.117432819 1.250000000
v 0.153718222 0.126776327 1.250000000
v 0.142814755 0.135459415 1.250000000
v 0.130915708 0.143416000 1.250000000
v 0.118111641 0.150585526 1.250000000
v 0.104500000 0.156913430 1.250000000
v 0.090184378 0.162351551 1.250000000
v 0.075273727 0.166858504 1.250000000
v 0.059881523 0.170399987 1.250000000
v 0.044124913 0.172949047 1.250000000
v 0.028123812 0.174486284 1.250000000
v 0.012000000 0.175000000 1.250000000
v -0.004123812 0.174486284 1.250000000
v -0.020124913 0.172949047 1.250000000
v -0.035881523 0.170399987 1.250000000
v -0.051273727 0.166858504 1.250000000
v -0.066184378 0.162351551 1.250000000
v -0.080500000 0.156913430 1.250000000
v -0.094111641 0.150585526 1.250000000
v -0.106915708 0.143416000 1.250000000
v -0.118814755 0.135459415 1.250000000
v -0.129718222 0.126776327 1.250000000
v -0.139543128 0.117432819 1.250000000
v -0.148214700 0.107500000 1.250000000
v -0.155666941 0.097053465 1.250000000
v -0.161843135 0.086172719 1.250000000
v -0.166696278 0.074940571 1.250000000
v -0.170189434 0.063442504 1.250000000
v -0.172296019 0.051766025 1.250000000
v -0.173000000 0.040000000 1.250000000
v -0.172296019 0.028233975 1.250000000
v -0.170189434 0.016557496 1.250000000
v -0.166696278 0.005059429 1.250000000
v -0.161843135 -0.006172719 1.250000000
v -0.155666941 -0.017053465 1.250000000
v -0.148214700 -0.027500000 1.250000000
v -0.139543128 -0.037432819 1.250000000
v -0.129718222 -0.046776327 1.250000000
v -0.118814755 -0.055459415 1.250000000
v -0.106915708 -0.063416000 1.250000000
v -0.094111641 -0.070585526 1.250000000
v -0.080500000 -0.076913430 1.250000000
v -0.066184378 -0.082351551 1.250000000
v -0.051273727 -0.086858504 1.250000000
v -0.035881523 -0.090399987 1.250000000
v -0.020124913 -0.092949047 1.250000000
v -0.004123812 -0.094486284 1.250000000
v 0.012000000 -0.095000000 1.250000000
v 0.028123812 -0.094486284 1.250000000
v 0.044124913 -0.092949047 1.250000000
v 0.059881523 -0.090399987 1.250000000
v 0.075273727 -0.086858504 1.250000000
v 0.090184378 -0.082351551 1.250000000
v 0.104500000 -0.076913430 1.250000000
v 0.118111641 -0.070585526 1.250000000
v 0.130915708 -0.063416000 1.250000000
v 0.142814755 -0.055459415 1.250000000
v 0.153718222 -0.046776327 1.250000000
v 0.163543128 -0.037432819 1.250000000
v 0.172214700 -0.027500000 1.250000000
v 0.179666941 -0.017053465 1.250000000
v 0.185843135 -0.006172719 1.250000000
v 0.190696278 0.005059429 1.250000000
v 0.194189434 0.016557496 1.250000000
v 0.196296019 0.028233975 1.250000000
v 0.197000000 0.040000000 1.300000000
v 0.196296019 0.051766025 1.300000000
v 0.194189434 0.063442504 1.300000000
v 0.190696278 0.074940571 1.300000000
v 0.185843135 0.086172719 1.300000000
v 0.179666941 0.097053465 1.300000000
v 0.172214700 0.107500000 1.300000000
v 0.163543128 0.117432819 1.300000000
v 0.153718222 0.126776327 1.300000000
v 0.142814755 0.135459415 1.300000000
v 0.130915708 0.143416000 1.300000000
v 0.118111641 0.150585526 1.300000000
v 0.104500000 0.156913430 1.300000000
v 0.090184378 0.162351551 1.300000000
v 0.075273727 0.166858504 1.300000000
v 0.059881523 0.170399987 1.300000000
v 0.044124913 0.172949047 1.300000000
v 0.028123812 0.174486284 1.300000000
v 0.012000000 0.175000000 1.300000000
v -0.004123812 0.174486284 1.300000000
v -0.020124913 0.172949047 1.300000000
v -0.035881523 0.170399987 1.300000000
v -0.051273727 0.166858504 1.300000000
v -0.066184378 0.162351551 1.300000000
v -0.080500000 0.156913430 1.300000000
v -0.094111641 0.150585526 1.300000000
v -0.106915708 0.143416000 1.300000000
v -0.118814755 0.135459415 1.300000000
v -0.129718222 0.126776327 1.300000000
v -0.139543128 0.117432819 1.300000000
v -0.148214700 0.107500000 1.300000000
v -0.155666941 0.097053465 1.300000000
v -0.161843135 0.086172719 1.300000000
v -0.166696278 0.074940571 1.300000000
v -0.170189434 0.063442504 1.300000000
v -0.172296019 0.051766025 1.300000000
v -0.173000000 0.040000000 1.300000000
v -0.172296019 0.028233975 1.300000000
v -0.170189434 0.016557496 1.300000000
v -0.166696278 0.005059429 1.300000000
v -0.161843135 -0.006172719 1.300000000
v -0.155666941 -0.017053465 1.300000000
v -0.148214700 -0.027500000 1.300000000
v -0.139543128 -0.037432819 1.300000000
v -0.129718222 -0.046776327 1.300000000
v -0.118814755 -0.055459415 1.300000000
v -0.106915708 -0.063416000 1.300000000
v -0.094111641 -0.070585526 1.300000000
v -0.080500000 -0.076913430 1.300000000
v -0.066184378 -0.082351551 1.300000000
v -0.051273727 -0.086858504 1.300000000
v -0.035881523 -0.090399987 1.300000000
v -0.020124913 -0.092949047 1.300000000
v -0.004123812 -0.094486284 1.300000000
v 0.012000000 -0.095000000 1.300000000
v 0.028123812 -0.094486284 1.300000000
v 0.044124913 -0.092949047 1.300000000
v 0.059881523 -0.090399987 1.300000000
v 0.075273727 -0.086858504 1.300000000
v 0.090184378 -0.082351551 1.300000000
v 0.104500000 -0.076913430 1.300000000
v 0.118111641 -0.070585526 1.300000000
v 0.130915708 -0.063416000 1.300000000
v 0.142814755 -0.055459415 1.300000000
v 0.153718222 -0.046776327 1.300000000
v 0.163543128 -0.037432819 1.300000000
v 0.172214700 -0.027500000 1.300000000
v 0.179666941 -0.017053465 1.300000000
v 0.185843135 -0.006172719 1.300000000
v 0.190696278 0.005059429 1.300000000
v 0.194189434 0.016557496 1.300000000
v 0.196296019 0.028233975 1.300000000
v 0.197000000 0.040000000 1.350000000
v 0.196296019 0.051766025 1.350000000
v 0.194189434 0.063442504 1.350000000
v 0.190696278 0.074940571 1.350000000
v 0.185843135 0.086172719 1.350000000
v 0.179666941 0.097053465 1.350000000
v 0.172214700 0.107500000 1.350000000
v 0.163543128 0.117432819 1.350000000
v 0.153718222 0.126776327 1.350000000
v 0.142814755 0.135459415 1.350000000
v 0.130915708 0.143416000 1.350000000
v 0.118111641 0.150585526 1.350000000
v 0.104500000 0.156913430 1.350000000
v 0.090184378 0.162351551 1.350000000
v 0.075273727 0.166858504 1.350000000
v 0.059881523 0.170399987 1.350000000
v 0.044124913 0.172949047 1.350000000
v 0.028123812 0.174486284 1.350000000
v 0.012000000 0.175000000 1.350000000
v -0.004123812 0.174486284 1.350000000
v -0.020124913 0.172949047 1.350000000
v -0.035881523 0.170399987 1.350000000
v -0.051273727 0.166858504 1.350000000
v -0.066184378 0.162351551 1.350000000
v -0.080500000 0.156913430 1.350000000
v -0.094111641 0.150585526 1.350000000
v -0.106915708 0.143416000 1.350000000
v -0.118814755 0.135459415 1.350000000
v -0.129718222 0.126776327 1.350000000
v -0.139543128 0.117432819 1.350000000
v -0.148214700 0.107500000 1.350000000
v -0.155666941 0.097053465 1.350000000
v -0.161843135 0.086172719 1.350000000
v -0.166696278 0.074940571 1.350000000
v -0.170189434 0.063442504 1.350000000
v -0.172296019 0.051766025 1.350000000
v -0.173000000 0.040000000 1.350000000
v -0.172296019 0.028233975 1.350000000
v -0.170189434 0.016557496 1.350000000
v -0.166696278 0.005059429 1.350000000
v -0.161843135 -0.006172719 1.350000000
v -0.155666941 -0.017053465 1.350000000
v -0.148214700 -0.027500000 1.350000000
v -0.139543128 -0.037432819 1.350000000
v -0.129718222 -0.046776327 1.350000000
v -0.118814755 -0.055459415 1.350000000
v -0.106915708 -0.063416000 1.350000000
v -0.094111641 -0.070585526 1.350000000
v -0.080500000 -0.076913430 1.350000000
v -0.066184378 -0.082351551 1.350000000
v -0.051273727 -0.086858504 1.350000000
v -0.035881523 -0.090399987 1.350000000
v -0.020124913 -0.092949047 1.350000000
v -0.004123812 -0.094486284 1.350000000
v 0.012000000 -0.095000000 1.350000000
v 0.028123812 -0.094486284 1.350000000
v 0.044124913 -0.092949047 1.350000000
v 0.059881523 -0.090399987 1.350000000
v 0.075273727 -0.086858504 1.350000000
v 0.090184378 -0.082351551 1.350000000
v 0.104500000 -0.076913430 1.350000000
v 0.118111641 -0.070585526 1.350000000
v 0.130915708 -0.063416000 1.350000000
v 0.142814755 -0.055459415 1.350000000
v 0.153718222 -0.046776327 1.350000000
v 0.163543128 -0.037432819 1.350000000
v 0.172214700 -0.027500000 1.350000000
v 0.179666941 -0.017053465 1.350000000
v 0.185843135 -0.006172719 1.350000000
v 0.190696278 0.005059429 1.350000000
v 0.194189434 0.016557496 1.350000000
v 0.196296019 0.028233975 1.350000000
v 0.197000000 0.040000000 1.400000000
v 0.196296019 0.051766025 1.400000000
v 0.194189434 0.063442504 1.400000000
v 0.190696278 0.074940571 1.400000000
v 0.185843135 0.086172719 1.400000000
v 0.179666941 0.097053465 1.400000000
v 0.172214700 0.107500000 1.400000000
v 0.163543128 0.117432819 1.400000000
v 0.153718222 0.126776327 1.400000000
v 0.142814755 0.135459415 1.400000000
v 0.130915708 0.143416000 1.400000000
v 0.118111641 0.150585526 1.400000000
v 0.104500000 0.156913430 1.400000000
v 0.090184378 0.162351551 1.400000000
v 0.075273727 0.166858504 1.400000000
v 0.059881523 0.170399987 1.400000000
v 0.044124913 0.172949047 1.400000000
v 0.028123812 0.174486284 1.400000000
v 0.012000000 0.175000000 1.400000000
v -0.004123812 0.174486284 1.400000000
v -0.020124913 0.172949047 1.400000000
v -0.035881523 0.170399987 1.400000000
v -0.051273727 0.166858504 1.400000000
v -0.066184378 0.162351551 1.400000000
v -0.080500000 0.156913430 1.400000000
v -0.094111641 0.150585526 1.400000000
v -0.106915708 0.143416000 1.400000000
v -0.118814755 0.135459415 1.400000000
v -0.129718222 0.126776327 1.400000000
v -0.139543128 0.117432819 1.400000000
v -0.148214700 0.107500000 1.400000000
v -0.155666941 0.097053465 1.400000000
v -0.161843135 0.086172719 1.400000000
v -0.166696278 0.074940571 1.400000000
v -0.170189434 0.063442504 1.400000000
v -0.172296019 0.051766025 1.400000000
v -0.173000000 0.040000000 1.400000000
v -0.172296019 0.028233975 1.400000000
v -0.170189434 0.016557496 1.400000000
v -0.166696278 0.005059429 1.400000000
v -0.161843135 -0.006172719 1.400000000
v -0.155666941 -0.017053465 1.400000000
v -0.148214700 -0.027500000 1.400000000
v -0.139543128 -0.037432819 1.400000000
v -0.129718222 -0.046776327 1.400000000
v -0.118814755 -0.055459415 1.400000000
v -0.106915708 -0.063416000 1.400000000
v -0.094111641 -0.070585526 1.400000000
v -0.080500000 -0.076913430 1.400000000
v -0.066184378 -0.082351551 1.400000000
v -0.051273727 -0.086858504 1.400000000
v -0.035881523 -0.090399987 1.400000000
v -0.020124913 -0.092949047 1.400000000
v -0.004123812 -0.094486284 1.400000000
v 0.012000000 -0.095000000 1.400000000
v 0.028123812 -0.094486284 1.400000000
v 0.044124913 -0.092949047 1.400000000
v 0.059881523 -0.090399987 1.400000000
v 0.075273727 -0.086858504 1.400000000
v 0.090184378 -0.082351551 1.400000000
v 0.104500000 -0.076913430 1.400000000
v 0.118111641 -0.070585526 1.400000000
v 0.130915708 -0.063416000 1.400000000
v 0.142814755 -0.055459415 1.400000000
v 0.153718222 -0.046776327 1.400000000
v 0.163543128 -0.037432819 1.400000000
v 0.172214700 -0.027500000 1.400000000
v 0.179666941 -0.017053465 1.400000000
v 0.185843135 -0.006172719 1.400000000
v 0.190696278 0.005059429 1.400000000
v 0.194189434 0.016557496 1.400000000
v 0.196296019 0.028233975 1.400000000
v 0.202000000 0.040000000 1.000000000
v 0.201276993 0.052201804 1.000000000
v 0.199113473 0.064310745 1.000000000
v 0.195525907 0.076234666 1.000000000
v 0.190541598 0.087882820 1.000000000
v 0.184198480 0.099166557 1.000000000
v 0.176544827 0.110000000 1.000000000
v 0.167638888 0.120300701 1.000000000
v 0.157548444 0.129990265 1.000000000
v 0.146350288 0.138994949 1.000000000
v 0.134129646 0.147246222 1.000000000
v 0.120979523 0.154681286 1.000000000
v 0.107000000 0.161243557 1.000000000
v 0.092297470 0.166883090 1.000000000
v 0.076983827 0.171556967 1.000000000
v 0.061175619 0.175229616 1.000000000
v 0.044993154 0.177873085 1.000000000
v 0.028559591 0.179467258 1.000000000
v 0.012000000 0.180000000 1.000000000
v -0.004559591 0.179467258 1.000000000
v -0.020993154 0.177873085 1.000000000
v -0.037175619 0.175229616 1.000000000
v -0.052983827 0.171556967 1.000000000
v -0.068297470 0.166883090 1.000000000
v -0.083000000 0.161243557 1.000000000
v -0.096979523 0.154681286 1.000000000
v -0.110129646 0.147246222 1.000000000
v -0.122350288 0.138994949 1.000000000
v -0.133548444 0.129990265 1.000000000
v -0.143638888 0.120300701 1.000000000
v -0.152544827 0.110000000 1.000000000
v -0.160198480 0.099166557 1.000000000
v -0.166541598 0.087882820 1.000000000
v -0.171525907 0.076234666 1.000000000
v -0.175113473 0.064310745 1.000000000
v -0.177276993 0.052201804 1.000000000
v -0.178000000 0.040000000 1.000000000
v -0.179447595 0.027608293 1.000000000
v -0.179388725 0.014935413 1.000000000
v -0.177775907 0.002090651 1.000000000
v -0.174576443 -0.010807265 1.000000000
v -0.169774035 -0.023631712 1.000000000
v -0.163370144 -0.036250000 1.000000000
v -0.155385046 -0.048525449 1.000000000
v -0.145858541 -0.060319663 1.000000000
v -0.134850288 -0.071494949 1.000000000
v -0.122439743 -0.081916824 1.000000000
v -0.108725681 -0.091456538 1.000000000
v -0.093825318 -0.099993557 1.000000000
v -0.077873025 -0.107417935 1.000000000
v -0.061018672 -0.113632522 1.000000000
v -0.043425619 -0.118554933 1.000000000
v -0.025268406 -0.122119243 1.000000000
v -0.006730193 -0.124277355 1.000000000
v 0.012000000 -0.125000000 1.000000000
v 0.030730193 -0.124277355 1.000000000
v 0.049268406 -0.122119243 1.000000000
v 0.067425619 -0.118554933 1.000000000
v 0.085018672 -0.113632522 1.000000000
v 0.101873025 -0.107417935 1.000000000
v 0.117825318 -0.099993557 1.000000000
v 0.132725681 -0.091456538 1.000000000
v 0.146439743 -0.081916824 1.000000000
v 0.158850288 -0.071494949 1.000000000
v 0.169858541 -0.060319663 1.000000000
v 0.179385046 -0.048525449 1.000000000
v 0.187370144 -0.036250000 1.000000000
v 0.193774035 -0.023631712 1.000000000
v 0.198576443 -0.010807265 1.000000000
v 0.201775907 0.002090651 1.000000000
v 0.203388725 0.014935413 1.000000000
v 0.203447595 0.027608293 1.000000000
v 0.202000000 0.040000000 1.050000000
v 0.201276993 0.052201804 1.050000000
v 0.199113473 0.064310745 1.050000000
v 0.195525907 0.076234666 1.050000000
v 0.190541598 0.087882820 1.050000000
v 0.184198480 0.099166557 1.050000000
v 0.176544827 0.110000000 1.050000000
v 0.167638888 0.120300701 1.050000000
v 0.157548444 0.129990265 1.050000000
v 0.146350288 0.138994949 1.050000000
v 0.134129646 0.147246222 1.050000000
v 0.120979523 0.154681286 1.050000000
v 0.107000000 0.161243557 1.050000000
v 0.092297470 0.166883090 1.050000000
v 0.076983827 0.171556967 1.050000000
v 0.061175619 0.175229616 1.050000000
v 0.044993154 0.177873085 1.050000000
v 0.028559591 0.179467258 1.050000000
v 0.012000000 0.180000000 1.050000000
v -0.004559591 0.179467258 1.050000000
v -0.020993154 0.177873085 1.050000000
v -0.037175619 0.175229616 1.050000000
v -0.052983827 0.171556967 1.050000000
v -0.068297470 0.166883090 1.050000000
v -0.083000000 0.161243557 1.050000000
v -0.096979523 0.154681286 1.050000000
v -0.110129646 0.147246222 1.050000000
v -0.122350288 0.138994949 1.050000000
v -0.133548444 0.129990265 1.050000000
v -0.143638888 0.120300701 1.050000000
v -0.152544827 0.110000000 1.050000000
v -0.160198480 0.099166557 1.050000000
v -0.166541598 0.087882820 1.050000000
v -0.171525907 0.076234666 1.050000000
v -0.175113473 0.064310745 1.050000000
v -0.177276993 0.052201804 1.050000000
v -0.178000000 0.040000000 1.050000000
v -0.179447595 0.027608293 1.050000000
v -0.179388725 0.014935413 1.050000000
v -0.177775907 0.002090651 1.050000000
v -0.174576443 -0.010807265 1.050000000
v -0.169774035 -0.023631712 1.050000000
v -0.163370144 -0.036250000 1.050000000
v -0.155385046 -0.048525449 1.050000000
v -0.145858541 -0.060319663 1.050000000
v -0.134850288 -0.071494949 1.050000000
v -0.122439743 -0.081916824 1.050000000
v -0.108725681 -0.091456538 1.050000000
v -0.093825318 -0.099993557 1.050000000
v -0.077873025 -0.107417935 1.050000000
v -0.061018672 -0.113632522 1.050000000
v -0.043425619 -0.118554933 1.050000000
v -0.025268406 -0.122119243 1.050000000
v -0.006730193 -0.124277355 1.050000000
v 0.012000000 -0.125000000 1.050000000
v 0.030730193 -0.124277355 1.050000000
v 0.049268406 -0.122119243 1.050000000
v 0.067425619 -0.118554933 1.050000000
v 0.085018672 -0.113632522 1.050000000
v 0.101873025 -0.107417935 1.050000000
v 0.117825318 -0.099993557 1.050000000
v 0.132725681 -0.091456538 1.050000000
v 0.146439743 -0.081916824 1.050000000
v 0.158850288 -0.071494949 1.050000000
v 0.169858541 -0.060319663 1.050000000
v 0.179385046 -0.048525449 1.050000000
v 0.187370144 -0.036250000 1.050000000
v 0.193774035 -0.023631712 1.050000000
v 0.198576443 -0.010807265 1.050000000
v 0.201775907 0.002090651 1.050000000
v 0.203388725 0.014935413 1.050000000
v 0.203447595 0.027608293 1.050000000
v 0.202000000 0.040000000 1.100000000
v 0.201276993 0.052201804 1.100000000
v 0.199113473 0.064310745 1.100000000
v 0.195525907 0.076234666 1.100000000
v 0.190541598 0.087882820 1.100000000
v 0.184198480 0.099166557 1.100000000
v 0.176544827 0.110000000 1.100000000
v 0.167638888 0.120300701 1.100000000
v 0.157548444 0.129990265 1.100000000
v 0.146350288 0.138994949 1.100000000
v 0.134129646 0.147246222 1.100000000
v 0.120979523 0.154681286 1.100000000
v 0.107000000 0.161243557 1.100000000
v 0.092297470 0.166883090 1.100000000
v 0.076983827 0.171556967 1.100000000
v 0.061175619 0.175229616 1.100000000
v 0.044993154 0.177873085 1.100000000
v 0.028559591 0.179467258 1.100000000
v 0.012000000 0.180000000 1.100000000
v -0.004559591 0.179467258 1.100000000
v -0.020993154 0.177873085 1.100000000
v -0.037175619 0.175229616 1.100000000
v -0.052983827 0.171556967 1.100000000
v -0.068297470 0.166883090 1.100000000
v -0.083000000 0.161243557 1.100000000
v -0.096979523 0.154681286 1.100000000
v -0.110129646 0.147246222 1.100000000
v -0.122350288 0.138994949 1.100000000
v -0.133548444 0.129990265 1.100000000
v -0.143638888 0.120300701 1.100000000
v -0.152544827 0.110000000 1.100000000
v -0.160198480 0.099166557 1.100000000
v -0.166541598 0.087882820 1.100000000
v -0.171525907 0.076234666 1.100000000
v -0.175113473 0.064310745 1.100000000
v -0.177276993 0.052201804 1.100000000
v -0.178000000 0.040000000 1.100000000
v -0.179447595 0.027608293 1.100000000
v -0.179388725 0.014935413 1.100000000
v -0.177775907 0.002090651 1.100000000
v -0.174576443 -0.010807265 1.100000000
v -0.169774035 -0.023631712 1.100000000
v -0.163370144 -0.036250000 1.100000000
v -0.155385046 -0.048525449 1.100000000
v -0.145858541 -0.060319663 1.100000000
v -0.134850288 -0.071494949 1.100000000
v -0.122439743 -0.081916824 1.100000000
v -0.108725681 -0.091456538 1.100000000
v -0.093825318 -0.099993557 1.100000000
v -0.077873025 -0.107417935 1.100000000
v -0.061018672 -0.113632522 1.100000000
v -0.043425619 -0.118554933 1.100000000
v -0.025268406 -0.122119243 1.100000000
v -0.006730193 -0.124277355 1.100000000
v 0.012000000 -0.125000000 1.100000000
v 0.030730193 -0.124277355 1.100000000
v 0.049268406 -0.122119243 1.100000000
v 0.067425619 -0.118554933 1.100000000
v 0.085018672 -0.113632522 1.100000000
v 0.101873025 -0.107417935 1.100000000
v 0.117825318 -0.099993557 1.100000000
v 0.132725681 -0.091456538 1.100000000
v 0.146439743 -0.081916824 1.100000000
v 0.158850288 -0.071494949 1.100000000
v 0.169858541 -0.060319663 1.100000000
v 0.179385046 -0.048525449 1.100000000
v 0.187370144 -0.036250000 1.100000000
v 0.193774035 -0.023631712 1.100000000
v 0.198576443 -0.010807265 1.100000000
v 0.201775907 0.002090651 1.100000000
v 0.203388725 0.014935413 1.100000000
v 0.203447595 0.027608293 1.100000000
v 0.202000000 0.040000000 1.150000000
v 0.201276993 0.052201804 1.150000000
v 0.199113473 0.064310745 1.150000000
v 0.195525907 0.076234666 1.150000000
v 0.190541598 0.087882820 1.150000000
v 0.184198480 0.099166557 1.150000000
v 0.176544827 0.110000000 1.150000000
v 0.167638888 0.120300701 1.150000000
v 0.157548444 0.129990265 1.150000000
v 0.146350288 0.138994949 1.150000000
v 0.134129646 0.147246222 1.150000000
v 0.120979523 0.154681286 1.150000000
v 0.107000000 0.161243557 1.150000000
v 0.092297470 0.166883090 1.150000000
v 0.076983827 0.171556967 1.150000000
v 0.061175619 0.175229616 1.150000000
v 0.044993154 0.177873085 1.150000000
v 0.028559591 0.179467258 1.150000000
v 0.012000000 0.180000000 1.150000000
v -0.004559591 0.179467258 1.150000000
v -0.020993154 0.177873085 1.150000000
v -0.037175619 0.175229616 1.150000000
v -0.052983827 0.171556967 1.150000000
v -0.068297470 0.166883090 1.150000000
v -0.083000000 0.161243557 1.150000000
v -0.096979523 0.154681286 1.150000000
v -0.110129646 0.147246222 1.150000000
v -0.122350288 0.138994949 1.150000000
v -0.133548444 0.129990265 1.150000000
v -0.143638888 0.120300701 1.150000000
v -0.152544827 0.110000000 1.150000000
v -0.160198480 0.099166557 1.150000000
v -0.166541598 0.087882820 1.150000000
v -0.171525907 0.076234666 1.150000000
v -0.175113473 0.064310745 1.150000000
v -0.177276993 0.052201804 1.150000000
v -0.178000000 0.040000000 1.150000000
v -0.179447595 0.027608293 1.150000000
v -0.179388725 0.014935413 1.150000000
v -0.177775907 0.002090651 1.150000000
v -0.174576443 -0.010807265 1.150000000
v -0.169774035 -0.023631712 1.150000000
v -0.163370144 -0.036250000 1.150000000
v -0.155385046 -0.048525449 1.150000000
v -0.145858541 -0.060319663 1.150000000
v -0.134850288 -0.071494949 1.150000000
v -0.122439743 -0.081916824 1.150000000
v -0.108725681 -0.091456538 1.150000000
v -0.093825318 -0.099993557 1.150000000
v -0.077873025 -0.107417935 1.150000000
v -0.061018672 -0.113632522 1.150000000
v -0.043425619 -0.118554933 1.150000000
v -0.025268406 -0.122119243 1.150000000
v -0.006730193 -0.124277355 1.150000000
v 0.012000000 -0.125000000 1.150000000
v 0.030730193 -0.124277355 1.150000000
v 0.049268406 -0.122119243 1.150000000
v 0.067425619 -0.118554933 1.150000000
v 0.085018672 -0.113632522 1.150000000
v 0.101873025 -0.107417935 1.150000000
v 0.117825318 -0.099993557 1.150000000
v 0.132725681 -0.091456538 1.150000000
v 0.146439743 -0.081916824 1.150000000
v 0.158850288 -0.071494949 1.150000000
v 0.169858541 -0.060319663 1.150000000
v 0.179385046 -0.048525449 1.150000000
v 0.187370144 -0.036250000 1.150000000
v 0.193774035 -0.023631712 1.150000000
v 0.198576443 -0.010807265 1.150000000
v 0.201775907 0.002090651 1.150000000
v 0.203388725 0.014935413 1.150000000
v 0.203447595 0.027608293 1.150000000
v 0.202000000 0.040000000 1.200000000
v 0.201276993 0.052201804 1.200000000
v 0.199113473 0.064310745 1.200000000
v 0.195525907 0.076234666 1.200000000
v 0.190541598 0.087882820 1.200000000
v 0.184198480 0.099166557 1.200000000
v 0.176544827 0.110000000 1.200000000
v 0.167638888 0.120300701 1.200000000
v 0.157548444 0.129990265 1.200000000
v 0.146350288 0.138994949 1.200000000
v 0.134129646 0.147246222 1.200000000
v 0.120979523 0.154681286 1.200000000
v 0.107000000 0.161243557 1.200000000
v 0.092297470 0.166883090 1.200000000
v 0.076983827 0.171556967 1.200000000
v 0.061175619 0.175229616 1.200000000
v 0.044993154 0.177873085 1.200000000
v 0.028559591 0.179467258 1.200000000
v 0.012000000 0.180000000 1.200000000
v -0.004559591 0.179467258 1.200000000
v -0.020993154 0.177873085 1.200000000
v -0.037175619 0.175229616 1.200000000
v -0.052983827 0.171556967 1.200000000
v -0.068297470 0.166883090 1.200000000
v -0.083000000 0.161243557 1.200000000
v -0.096979523 0.154681286 1.200000000
v -0.110129646 0.147246222 1.200000000
v -0.122350288 0.138994949 1.200000000
v -0.133548444 0.129990265 1.200000000
v -0.143638888 0.120300701 1.200000000
v -0.152544827 0.110000000 1.200000000
v -0.160198480 0.099166557 1.200000000
v -0.166541598 0.087882820 1.200000000
v -0.171525907 0.076234666 1.200000000
v -0.175113473 0.064310745 1.200000000
v -0.177276993 0.052201804 1.200000000
v -0.178000000 0.040000000 1.200000000
v -0.179447595 0.027608293 1.200000000
v -0.179388725 0.014935413 1.200000000
v -0.177775907 0.002090651 1.200000000
v -0.174576443 -0.010807265 1.200000000
v -0.169774035 -0.023631712 1.200000000
v -0.163370144 -0.036250000 1.200000000
v -0.155385046 -0.048525449 1.200000000
v -0.145858541 -0.060319663 1.200000000
v -0.134850288 -0.071494949 1.200000000
v -0.122439743 -0.081916824 1.200000000
v -0.108725681 -0.091456538 1.200000000
v -0.093825318 -0.099993557 1.200000000
v -0.077873025 -0.107417935 1.200000000
v -0.061018672 -0.113632522 1.200000000
v -0.043425619 -0.118554933 1.200000000
v -0.025268406 -0.122119243 1.200000000
v -0.006730193 -0.124277355 1.200000000
v 0.012000000 -0.125000000 1.200000000
v 0.030730193 -0.124277355 1.200000000
v 0.049268406 -0.122119243 1.200000000
v 0.067425619 -0.118554933 1.200000000
v 0.085018672 -0.113632522 1.200000000
v 0.101873025 -0.107417935 1.200000000
v 0.117825318 -0.099993557 1.200000000
v 0.132725681 -0.091456538 1.200000000
v 0.146439743 -0.081916824 1.200000000
v 0.158850288 -0.071494949 1.200000000
v 0.169858541 -0.060319663 1.200000000
v 0.179385046 -0.048525449 1.200000000
v 0.187370144 -0.036250000 1.200000000
v 0.193774035 -0.023631712 1.200000000
v 0.198576443 -0.010807265 1.200000000
v 0.201775907 0.002090651 1.200000000
v 0.203388725 0.014935413 1.200000000
v 0.203447595 0.027608293 1.200000000
v 0.202000000 0.040000000 1.250000000
v 0.201276993 0.052201804 1.250000000
v 0.199113473 0.064310745 1.250000000
v 0.195525907 0.076234666 1.250000000
v 0.190541598 0.087882820 1.250000000
v 0.184198480 0.099166557 1.250000000
v 0.176544827 0.110000000 1.250000000
v 0.167638888 0.120300701 1.250000000
v 0.157548444 0.129990265 1.250000000
v 0.146350288 0.138994949 1.250000000
v 0.134129646 0.147246222 1.250000000
v 0.120979523 0.154681286 1.250000000
v 0.107000000 0.161243557 1.250000000
v 0.092297470 0.166883090 1.250000000
v 0.076983827 0.171556967 1.250000000
v 0.061175619 0.175229616 1.250000000
v 0.044993154 0.177873085 1.250000000
v 0.028559591 0.179467258 1.250000000
v 0.012000000 0.180000000 1.250000000
v -0.004559591 0.179467258 1.250000000
v -0.020993154 0.177873085 1.250000000
v -0.037175619 0.175229616 1.250000000
v -0.052983827 0.171556967 1.250000000
v -0.068297470 0.166883090 1.250000000
v -0.083000000 0.161243557 1.250000000
v -0.096979523 0.154681286 1.250000000
v -0.110129646 0.147246222 1.250000000
v -0.122350288 0.138994949 1.250000000
v -0.133548444 0.129990265 1.250000000
v -0.143638888 0.120300701 1.250000000
v -0.152544827 0.110000000 1.250000000
v -0.160198480 0.099166557 1.250000000
v -0.166541598 0.087882820 1.250000000
v -0.171525907 0.076234666 1.250000000
v -0.175113473 0.064310745 1.250000000
v -0.177276993 0.052201804 1.250000000
v -0.178000000 0.040000000 1.250000000
v -0.179447595 0.027608293 1.250000000
v -0.179388725 0.014935413 1.250000000
v -0.177775907 0.002090651 1.250000000
v -0.174576443 -0.010807265 1.250000000
v -0.169774035 -0.023631712 1.250000000
v -0.163370144 -0.036250000 1.250000000
v -0.155385046 -0.048525449 1.250000000
v -0.145858541 -0.060319663 1.250000000
v -0.134850288 -0.071494949 1.250000000
v -0.122439743 -0.081916824 1.250000000
v -0.108725681 -0.091456538 1.250000000
v -0.093825318 -0.099993557 1.250000000
v -0.077873025 -0.107417935 1.250000000
v -0.061018672 -0.113632522 1.250000000
v -0.043425619 -0.118554933 1.250000000
v -0.025268406 -0.122119243 1.250000000
v -0.006730193 -0.124277355 1.250000000
v 0.012000000 -0.125000000 1.250000000
v 0.030730193 -0.124277355 1.250000000
v 0.049268406 -0.122119243 1.250000000
v 0.067425619 -0.118554933 1.250000000
v 0.085018672 -0.113632522 1.250000000
v 0.101873025 -0.107417935 1.250000000
v 0.117825318 -0.099993557 1.250000000
v 0.132725681 -0.091456538 1.250000000
v 0.146439743 -0.081916824 1.250000000
v 0.158850288 -0.071494949 1.250000000
v 0.169858541 -0.060319663 1.250000000
v 0.179385046 -0.048525449 1.250000000
v 0.187370144 -0.036250000 1.250000000
v 0.193774035 -0.023631712 1.250000000
v 0.198576443 -0.010807265 1.250000000
v 0.201775907 0.002090651 1.250000000
v 0.203388725 0.014935413 1.250000000
v 0.203447595 0.027608293 1.250000000
v 0.202000000 0.040000000 1.300000000
v 0.201276993 0.052201804 1.300000000
v 0.199113473 0.064310745 1.300000000
v 0.195525907 0.076234666 1.300000000
v 0.190541598 0.087882820 1.300000000
v 0.184198480 0.099166557 1.300000000
v 0.176544827 0.110000000 1.300000000
v 0.167638888 0.120300701 1.300000000
v 0.157548444 0.129990265 1.300000000
v 0.146350288 0.138994949 1.300000000
v 0.134129646 0.147246222 1.300000000
v 0.120979523 0.154681286 1.300000000
v 0.107000000 0.161243557 1.300000000
v 0.092297470 0.166883090 1.300000000
v 0.076983827 0.171556967 1.300000000
v 0.061175619 0.175229616 1.300000000
v 0.044993154 0.177873085 1.300000000
v 0.028559591 0.179467258 1.300000000
v 0.012000000 0.180000000 1.300000000
v -0.004559591 0.179467258 1.300000000
v -0.020993154 0.177873085 1.300000000
v -0.037175619 0.175229616 1.300000000
v -0.052983827 0.171556967 1.300000000
v -0.068297470 0.166883090 1.300000000
v -0.083000000 0.161243557 1.300000000
v -0.096979523 0.154681286 1.300000000
v -0.110129646 0.147246222 1.300000000
v -0.122350288 0.138994949 1.300000000
v -0.133548444 0.129990265 1.300000000
v -0.143638888 0.120300701 1.300000000
v -0.152544827 0.110000000 1.300000000
v -0.160198480 0.099166557 1.300000000
v -0.166541598 0.087882820 1.300000000
v -0.171525907 0.076234666 1.300000000
v -0.175113473 0.064310745 1.300000000
v -0.177276993 0.052201804 1.300000000
v -0.178000000 0.040000000 1.300000000
v -0.179447595 0.027608293 1.300000000
v -0.179388725 0.014935413 1.300000000
v -0.177775907 0.002090651 1.300000000
v -0.174576443 -0.010807265 1.300000000
v -0.169774035 -0.023631712 1.300000000
v -0.163370144 -0.036250000 1.300000000
v -0.155385046 -0.048525449 1.300000000
v -0.145858541 -0.060319663 1.300000000
v -0.134850288 -0.071494949 1.300000000
v -0.122439743 -0.081916824 1.300000000
v -0.108725681 -0.091456538 1.300000000
v -0.093825318 -0.099993557 1.300000000
v -0.077873025 -0.107417935 1.300000000
v -0.061018672 -0.113632522 1.300000000
v -0.043425619 -0.118554933 1.300000000
v -0.025268406 -0.122119243 1.300000000
v -0.006730193 -0.124277355 1.300000000
v 0.012000000 -0.125000000 1.300000000
v 0.030730193 -0.124277355 1.300000000
v 0.049268406 -0.122119243 1.300000000
v 0.067425619 -0.118554933 1.300000000
v 0.085018672 -0.113632522 1.300000000
v 0.101873025 -0.107417935 1.300000000
v 0.117825318 -0.099993557 1.300000000
v 0.132725681 -0.091456538 1.300000000
v 0.146439743 -0.081916824 1.300000000
v 0.158850288 -0.071494949 1.300000000
v 0.169858541 -0.060319663 1.300000000
v 0.179385046 -0.048525449 1.300000000
v 0.187370144 -0.036250000 1.300000000
v 0.193774035 -0.023631712 1.300000000
v 0.198576443 -0.010807265 1.300000000
v 0.201775907 0.002090651 1.300000000
v 0.203388725 0.014935413 1.300000000
v 0.203447595 0.027608293 1.300000000
v 0.202000000 0.040000000 1.350000000
v 0.201276993 0.052201804 1.350000000
v 0.199113473 0.064310745 1.350000000
v 0.195525907 0.076234666 1.350000000
v 0.190541598 0.087882820 1.350000000
v 0.184198480 0.099166557 1.350000000
v 0.176544827 0.110000000 1.350000000
v 0.167638888 0.120300701 1.350000000
v 0.157548444 0.129990265 1.350000000
v 0.146350288 0.138994949 1.350000000
v 0.134129646 0.147246222 1.350000000
v 0.120979523 0.154681286 1.350000000
v 0.107000000 0.161243557 1.350000000
v 0.092297470 0.166883090 1.350000000
v 0.076983827 0.171556967 1.350000000
v 0.061175619 0.175229616 1.350000000
v 0.044993154 0.177873085 1.350000000
v 0.028559591 0.179467258 1.350000000
v 0.012000000 0.180000000 1.350000000
v -0.004559591 0.179467258 1.350000000
v -0.020993154 0.177873085 1.350000000
v -0.037175619 0.175229616 1.350000000
v -0.052983827 0.171556967 1.350000000
v -0.068297470 0.166883090 1.350000000
v -0.083000000 0.161243557 1.350000000
v -0.096979523 0.154681286 1.350000000
v -0.110129646 0.147246222 1.350000000
v -0.122350288 0.138994949 1.350000000
v -0.133548444 0.129990265 1.350000000
v -0.143638888 0.120300701 1.350000000
v -0.152544827 0.110000000 1.350000000
v -0.160198480 0.099166557 1.350000000
v -0.166541598 0.087882820 1.350000000
v -0.171525907 0.076234666 1.350000000
v -0.175113473 0.064310745 1.350000000
v -0.177276993 0.052201804 1.350000000
v -0.178000000 0.040000000 1.350000000
v -0.179447595 0.027608293 1.350000000
v -0.179388725 0.014935413 1.350000000
v -0.177775907 0.002090651 1.350000000
v -0.174576443 -0.010807265 1.350000000
v -0.169774035 -0.023631712 1.350000000
v -0.163370144 -0.036250000 1.350000000
v -0.155385046 -0.048525449 1.350000000
v -0.145858541 -0.060319663 1.350000000
v -0.134850288 -0.071494949 1.350000000
v -0.122439743 -0.081916824 1.350000000
v -0.108725681 -0.091456538 1.350000000
v -0.093825318 -0.099993557 1.350000000
v -0.077873025 -0.107417935 1.350000000
v -0.061018672 -0.113632522 1.350000000
v -0.043425619 -0.118554933 1.350000000
v -0.025268406 -0.122119243 1.350000000
v -0.006730193 -0.124277355 1.350000000
v 0.012000000 -0.125000000 1.350000000
v 0.030730193 -0.124277355 1.350000000
v 0.049268406 -0.122119243 1.350000000
v 0.067425619 -0.118554933 1.350000000
v 0.085018672 -0.113632522 1.350000000
v 0.101873025 -0.107417935 1.350000000
v 0.117825318 -0.099993557 1.350000000
v 0.132725681 -0.091456538 1.350000000
v 0.146439743 -0.081916824 1.350000000
v 0.158850288 -0.071494949 1.350000000
v 0.169858541 -0.060319663 1.350000000
v 0.179385046 -0.048525449 1.350000000
v 0.187370144 -0.036250000 1.350000000
v 0.193774035 -0.023631712 1.350000000
v 0.198576443 -0.010807265 1.350000000
v 0.201775907 0.002090651 1.350000000
v 0.203388725 0.014935413 1.350000000
v 0.203447595 0.027608293 1.350000000
v 0.202000000 0.040000000 1.400000000
v 0.201276993 0.052201804 1.400000000
v 0.199113473 0.064310745 1.400000000
v 0.195525907 0.076234666 1.400000000
v 0.190541598 0.087882820 1.400000000
v 0.184198480 0.099166557 1.400000000
v 0.176544827 0.110000000 1.400000000
v 0.167638888 0.120300701 1.400000000
v 0.157548444 0.129990265 1.400000000
v 0.146350288 0.138994949 1.400000000
v 0.134129646 0.147246222 1.400000000
v 0.120979523 0.154681286 1.400000000
v 0.107000000 0.161243557 1.400000000
v 0.092297470 0.166883090 1.400000000
v 0.076983827 0.171556967 1.400000000
v 0.061175619 0.175229616 1.400000000
v 0.044993154 0.177873085 1.400000000
v 0.028559591 0.179467258 1.400000000
v 0.012000000 0.180000000 1.400000000
v -0.004559591 0.179467258 1.400000000
v -0.020993154 0.177873085 1.400000000
v -0.037175619 0.175229616 1.400000000
v -0.052983827 0.171556967 1.400000000
v -0.068297470 0.166883090 1.400000000
v -0.083000000 0.161243557 1.400000000
v -0.096979523 0.154681286 1.400000000
v -0.110129646 0.147246222 1.400000000
v -0.122350288 0.138994949 1.400000000
v -0.133548444 0.129990265 1.400000000
v -0.143638888 0.120300701 1.400000000
v -0.152544827 0.110000000 1.400000000
v -0.160198480 0.099166557 1.400000000
v -0.166541598 0.087882820 1.400000000
v -0.171525907 0.076234666 1.400000000
v -0.175113473 0.064310745 1.400000000
v -0.177276993 0.052201804 1.400000000
v -0.178000000 0.040000000 1.400000000
v -0.179447595 0.027608293 1.400000000
v -0.179388725 0.014935413 1.400000000
v -0.177775907 0.002090651 1.400000000
v -0.174576443 -0.010807265 1.400000000
v -0.169774035 -0.023631712 1.400000000
v -0.163370144 -0.036250000 1.400000000
v -0.155385046 -0.048525449 1.400000000
v -0.145858541 -0.060319663 1.400000000
v -0.134850288 -0.071494949 1.400000000
v -0.122439743 -0.081916824 1.400000000
v -0.108725681 -0.091456538 1.400000000
v -0.093825318 -0.099993557 1.400000000
v -0.077873025 -0.107417935 1.400000000
v -0.061018672 -0.113632522 1.400000000
v -0.043425619 -0.118554933 1.400000000
v -0.025268406 -0.122119243 1.400000000
v -0.006730193 -0.124277355 1.400000000
v 0.012000000 -0.125000000 1.400000000
v 0.030730193 -0.124277355 1.400000000
v 0.049268406 -0.122119243 1.400000000
v 0.067425619 -0.118554933 1.400000000
v 0.085018672 -0.113632522 1.400000000
v 0.101873025 -0.107417935 1.400000000
v 0.117825318 -0.099993557 1.400000000
v 0.132725681 -0.091456538 1.400000000
v 0.146439743 -0.081916824 1.400000000
v 0.158850288 -0.071494949 1.400000000
v 0.169858541 -0.060319663 1.400000000
v 0.179385046 -0.048525449 1.400000000
v 0.187370144 -0.036250000 1.400000000
v 0.193774035 -0.023631712 1.400000000
v 0.198576443 -0.010807265 1.400000000
v 0.201775907 0.002090651 1.400000000
v 0.203388725 0.014935413 1.400000000
v 0.203447595 0.027608293 1.400000000
g inner
f 1 2 74 73
f 2 3 75 74
f 3 4 76 75
f 4 5 77 76
f 5 6 78 77
f 6 7 79 78
f 7 8 80 79
f 8 9 81 80
f 9 10 82 81
f 10 11 83 82
f 11 12 84 83
f 12 13 85 84
f 13 14 86 85
f 14 15 87 86
f 15 16 88 87
f 16 17 89 88
f 17 18 90 89
f 18 19 91 90
f 19 20 92 91
f 20 21 93 92
f 21 22 94 93
f 22 23 95 94
f 23 24 96 95
f 24 25 97 96
f 25 26 98 97
f 26 27 99 98
f 27 28 100 99
f 28 29 101 100
f 29 30 102 101
f 30 31 103 102
f 31 32 104 103
f 32 33 105 104
f 33 34 106 105
f 34 35 107 106
f 35 36 108 107
f 36 37 109 108
f 37 38 110 109
f 38 39 111 110
f 39 40 112 111
f 40 41 113 112
f 41 42 114 113
f 42 43 115 114
f 43 44 116 115
f 44 45 117 116
f 45 46 118 117
f 46 47 119 118
f 47 48 120 119
f 48 49 121 120
f 49 50 122 121
f 50 51 123 122
f 51 52 124 123
f 52 53 125 124
f 53 54 126 125
f 54 55 127 126
f 55 56 128 127
f 56 57 129 128
f 57 58 130 129
f 58 59 131 130
f 59 60 132 131
f 60 61 133 132
f 61 62 134 133
f 62 63 135 134
f 63 64 136 135
f 64 65 137 136
f 65 66 138 137
f 66 67 139 138
f 67 68 140 139
f 68 69 141 140
f 69 70 142 141
f 70 71 143 142
f 71 72 144 143
f 72 1 73 144
f 73 74 146 145
f 74 75 147 146
f 75 76 148 147
f 76 77 149 148
f 77 78 150 149
f 78 79 151 150
f 79 80 152 151
f 80 81 153 152
f 81 82 154 153
f 82 83 155 154
f 83 84 156 155
f 84 85 157 156
f 85 86 158 157
f 86 87 159 158
f 87 88 160 159
f 88 89 161 160
f 89 90 162 161
f 90 91 163 162
f 91 92 164 163
f 92 93 165 164
f 93 94 166 165
f 94 95 167 166
f 95 96 168 167
f 96 97 169 168
f 97 98 170 169
f 98 99 171 170
f 99 100 172 171
f 100 101 173 172
f 101 102 174 173
f 102 103 175 174
f 103 104 176 175
f 104 105 177 176
f 105 106 178 177
f 106 107 179 178
f 107 108 180 179
f 108 109 181 180
f 109 110 182 181
f 110 111 183 182
f 111 112 184 183
f 112 113 185 184
f 113 114 186 185
f 114 115 187 186
f 115 116 188 187
f 116 117 189 188
f 117 118 190 189
f 118 119 191 190
f 119 120 192 191
f 120 121 193 192
f 121 122 194 193
f 122 123 195 194
f 123 124 196 195
f 124 125 197 196
f 125 126 198 197
f 126 127 199 198
f 127 128 200 199
f 128 129 201 200
f 129 130 202 201
f 130 131 203 202
f 131 132 204 203
f 132 133 205 204
f 133 134 206 205
f 134 135 207 206
f 135 136 208 207
f 136 137 209 208
f 137 138 210 209
f 138 139 211 210
f 139 140 212 211
f 140 141 213 212
f 141 142 214 213
f 142 143 215 214
f 143 144 216 215
f 144 73 145 216
f 145 146 218 217
f 146 147 219 218
f 147 148 220 219
f 148 149 221 220
f 149 150 222 221
f 150 151 223 222
f 151 152 224 223
f 152 153 225 224
f 153 154 226 225
f 154 155 227 226
f 155 156 228 227
f 156 157 229 228
f 157 158 230 229
f 158 159 231 230
f 159 160 232 231
f 160 161 233 232
f 161 162 234 233
f 162 163 235 234
f 163 164 236 235
f 164 165 237 236
f 165 166 238 237
f 166 167 239 238
f 167 168 240 239
f 168 169 241 240
f 169 170 242 241
f 170 171 243 242
f 171 172 244 243
f 172 173 245 244
f 173 174 246 245
f 174 175 247 246
f 175 176 248 247
f 176 177 249 248
f 177 178 250 249
f 178 179 251 250
f 179 180 252 251
f 180 181 253 252
f 181 182 254 253
f 182 183 255 254
f 183 184 256 255
f 184 185 257 256
f 185 186 258 257
f 186 187 259 258
f 187 188 260 259
f 188 189 261 260
f 189 190 262 261
f 190 191 263 262
f 191 192 264 263
f 192 193 265 264
f 193 194 266 265
f 194 195 267 266
f 195 196 268 267
f 196 197 269 268
f 197 198 270 269
f 198 199 271 270
f 199 200 272 271
f 200 201 273 272
f 201 202 274 273
f 202 203 275 274
f 203 204 276 275
f 204 205 277 276
f 205 206 278 277
f 206 207 279 278
f 207 208 280 279
f 208 209 281 280
f 209 210 282 281
f 210 211 283 282
f 211 212 284 283
f 212 213 285 284
f 213 214 286 285
f 214 215 287 286
f 215 216 288 287
f 216 145 217 288
f 217 218 290 289
f 218 219 291 290
f 219 220 292 291
f 220 221 293 292
f 221 222 294 293
f 222 223 295 294
f 223 224 296 295
f 224 225 297 296
f 225 226 298 297
f 226 227 299 298
f 227 228 300 299
f 228 229 301 300
f 229 230 302 301
f 230 231 303 302
f 231 232 304 303
f 232 233 305 304
f 233 234 306 305
f 234 235 307 306
f 235 236 308 307
f 236 237 309 308
f 237 238 310 309
f 238 239 311 310
f 239 240 312 311
f 240 241 313 312
f 241 242 314 313
f 242 243 315 314
f 243 244 316 315
f 244 245 317 316
f 245 246 318 317
f 246 247 319 318
f 247 248 320 319
f 248 249 321 320
f 249 250 322 321
f 250 251 323 322
f 251 252 324 323
f 252 253 325 324
f 253 254 326 325
f 254 255 327 326
f 255 256 328 327
f 256 257 329 328
f 257 258 330 329
f 258 259 331 330
f 259 260 332 331
f 260 261 333 332
f 261 262 334 333
f 262 263 335 334
f 263 264 336 335
f 264 265 337 336
f 265 266 338 337
f 266 267 339 338
f 267 268 340 339
f 268 269 341 340
f 269 270 342 341
f 270 271 343 342
f 271 272 344 343
f 272 273 345 344
f 273 274 346 345
f 274 275 347 346
f 275 276 348 347
f 276 277 349 348
f 277 278 350 349
f 278 279 351 350
f 279 280 352 351
f 280 281 353 352
f 281 282 354 353
f 282 283 355 354
f 283 284 356 355
f 284 285 357 356
f 285 286 358 357
f 286 287 359 358
f 287 288 360 359
f 288 217 289 360
f 289 290 362 361
f 290 291 363 362
f 291 292 364 363
f 292 293 365 364
f 293 294 366 365
f 294 295 367 366
f 295 296 368 367
f 296 297 369 368
f 297 298 370 369
f 298 299 371 370
f 299 300 372 371
f 300 301 373 372
f 301 302 374 373
f 302 303 375 374
f 303 304 376 375
f 304 305 377 376
f 305 306 378 377
f 306 307 379 378
f 307 308 380 379
f 308 309 381 380
f 309 310 382 381
f 310 311 383 382
f 311 312 384 383
f 312 313 385 384
f 313 314 386 385
f 314 315 387 386
f 315 316 388 387
f 316 317 389 388
f 317 318 390 389
f 318 319 391 390
f 319 320 392 391
f 320 321 393 392
f 321 322 394 393
f 322 323 395 394
f 323 324 396 395
f 324 325 397 396
f 325 326 398 397
f 326 327 399 398
f 327 328 400 399
f 328 329 401 400
f 329 330 402 401
f 330 331 403 402
f 331 332 404 403
f 332 333 405 404
f 333 334 406 405
f 334 335 407 406
f 335 336 408 407
f 336 337 409 408
f 337 338 410 409
f 338 339 411 410
f 339 340 412 411
f 340 341 413 412
f 341 342 414 413
f 342 343 415 414
f 343 344 416 415
f 344 345 417 416
f 345 346 418 417
f 346 347 419 418
f 347 348 420 419
f 348 349 421 420
f 349 350 422 421
f 350 351 423 422
f 351 352 424 423
f 352 353 425 424
f 353 354 426 425
f 354 355 427 426
f 355 356 428 427
f 356 357 429 428
f 357 358 430 429
f 358 359 431 430
f 359 360 432 431
f 360 289 361 432
f 361 362 434 433
f 362 363 435 434
f 363 364 436 435
f 364 365 437 436
f 365 366 438 437
f 366 367 439 438
f 367 368 440 439
f 368 369 441 440
f 369 370 442 441
f 370 371 443 442
f 371 372 444 443
f 372 373 445 444
f 373 374 446 445
f 374 375 447 446
f 375 376 448 447
f 376 377 449 448
f 377 378 450 449
f 378 379 451 450
f 379 380 452 451
f 380 381 453 452
f 381 382 454 453
f 382 383 455 454
f 383 384 456 455
f 384 385 457 456
f 385 386 458 457
f 386 387 459 458
f 387 388 460 459
f 388 389 461 460
f 389 390 462 461
f 390 391 463 462
f 391 392 464 463
f 392 393 465 464
f 393 394 466 465
f 394 395 467 466
f 395 396 468 467
f 396 397 469 468
f 397 398 470 469
f 398 399 471 470
f 399 400 472 471
f 400 401 473 472
f 401 402 474 473
f 402 403 475 474
f 403 404 476 475
f 404 405 477 476
f 405 406 478 477
f 406 407 479 478
f 407 408 480 479
f 408 409 481 480
f 409 410 482 481
f 410 411 483 482
f 411 412 484 483
f 412 413 485 484
f 413 414 486 485
f 414 415 487 486
f 415 416 488 487
f 416 417 489 488
f 417 418 490 489
f 418 419 491 490
f 419 420 492 491
f 420 421 493 492
f 421 422 494 493
f 422 423 495 494
f 423 424 496 495
f 424 425 497 496
f 425 426 498 497
f 426 427 499 498
f 427 428 500 499
f 428 429 501 500
f 429 430 502 501
f 430 431 503 502
f 431 432 504 503
f 432 361 433 504
f 433 434 506 505
f 434 435 507 506
f 435 436 508 507
f 436 437 509 508
f 437 438 510 509
f 438 439 511 510
f 439 440 512 511
f 440 441 513 512
f 441 442 514 513
f 442 443 515 514
f 443 444 516 515
f 444 445 517 516
f 445 446 518 517
f 446 447 519 518
f 447 448 520 519
f 448 449 521 520
f 449 450 522 521
f 450 451 523 522
f 451 452 524 523
f 452 453 525 524
f 453 454 526 525
f 454 455 527 526
f 455 456 528 527
f 456 457 529 528
f 457 458 530 529
f 458 459 531 530
f 459 460 532 531
f 460 461 533 532
f 461 462 534 533
f 462 463 535 534
f 463 464 536 535
f 464 465 537 536
f 465 466 538 537
f 466 467 539 538
f 467 468 540 539
f 468 469 541 540
f 469 470 542 541
f 470 471 543 542
f 471 472 544 543
f 472 473 545 544
f 473 474 546 545
f 474 475 547 546
f 475 476 548 547
f 476 477 549 548
f 477 478 550 549
f 478 479 551 550
f 479 480 552 551
f 480 481 553 552
f 481 482 554 553
f 482 483 555 554
f 483 484 556 555
f 484 485 557 556
f 485 486 558 557
f 486 487 559 558
f 487 488 560 559
f 488 489 561 560
f 489 490 562 561
f 490 491 563 562
f 491 492 564 563
f 492 493 565 564
f 493 494 566 565
f 494 495 567 566
f 495 496 568 567
f 496 497 569 568
f 497 498 570 569
f 498 499 571 570
f 499 500 572 571
f 500 501 573 572
f 501 502 574 573
f 502 503 575 574
f 503 504 576 575
f 504 433 505 576
f 505 506 578 577
f 506 507 579 578
f 507 508 580 579
f 508 509 581 580
f 509 510 582 581
f 510 511 583 582
f 511 512 584 583
f 512 513 585 584
f 513 514 586 585
f 514 515 587 586
f 515 516 588 587
f 516 517 589 588
f 517 518 590 589
f 518 519 591 590
f 519 520 592 591
f 520 521 593 592
f 521 522 594 593
f 522 523 595 594
f 523 524 596 595
f 524 525 597 596
f 525 526 598 597
f 526 527 599 598
f 527 528 600 599
f 528 529 601 600
f 529 530 602 601
f 530 531 603 602
f 531 532 604 603
f 532 533 605 604
f 533 534 606 605
f 534 535 607 606
f 535 536 608 607
f 536 537 609 608
f 537 538 610 609
f 538 539 611 610
f 539 540 612 611
f 540 541 613 612
f 541 542 614 613
f 542 543 615 614
f 543 544 616 615
f 544 545 617 616
f 545 546 618 617
f 546 547 619 618
f 547 548 620 619
f 548 549 621 620
f 549 550 622 621
f 550 551 623 622
f 551 552 624 623
f 552 553 625 624
f 553 554 626 625
f 554 555 627 626
f 555 556 628 627
f 556 557 629 628
f 557 558 630 629
f 558 559 631 630
f 559 560 632 631
f 560 561 633 632
f 561 562 634 633
f 562 563 635 634
f 563 564 636 635
f 564 565 637 636
f 565 566 638 637
f 566 567 639 638
f 567 568 640 639
f 568 569 641 640
f 569 570 642 641
f 570 571 643 642
f 571 572 644 643
f 572 573 645 644
f 573 574 646 645
f 574 575 647 646
f 575 576 648 647
f 576 505 577 648
g outer
f 649 650 722 721
f 650 651 723 722
f 651 652 724 723
f 652 653 725 724
f 653 654 726 725
f 654 655 727 726
f 655 656 728 727
f 656 657 729 728
f 657 658 730 729
f 658 659 731 730
f 659 660 732 731
f 660 661 733 732
f 661 662 734 733
f 662 663 735 734
f 663 664 736 735
f 664 665 737 736
f 665 666 738 737
f 666 667 739 738
f 667 668 740 739
f 668 669 741 740
f 669 670 742 741
f 670 671 743 742
f 671 672 744 743
f 672 673 745 744
f 673 674 746 745
f 674 675 747 746
f 675 676 748 747
f 676 677 749 748
f 677 678 750 749
f 678 679 751 750
f 679 680 752 751
f 680 681 753 752
f 681 682 754 753
f 682 683 755 754
f 683 684 756 755
f 684 685 757 756
f 685 686 758 757
f 686 687 759 758
f 687 688 760 759
f 688 689 761 760
f 689 690 762 761
f 690 691 763 762
f 691 692 764 763
f 692 693 765 764
f 693 694 766 765
f 694 695 767 766
f 695 696 768 767
f 696 697 769 768
f 697 698 770 769
f 698 699 771 770
f 699 700 772 771
f 700 701 773 772
f 701 702 774 773
f 702 703 775 774
f 703 704 776 775
f 704 705 777 776
f 705 706 778 777
f 706 707 779 778
f 707 708 780 779
f 708 709 781 780
f 709 710 782 781
f 710 711 783 782
f 711 712 784 783
f 712 713 785 784
f 713 714 786 785
f 714 715 787 786
f 715 716 788 787
f 716 717 789 788
f 717 718 790 789
f 718 719 791 790
f 719 720 792 791
f 720 649 721 792
f 721 722 794 793
f 722 723 795 794
f 723 724 796 795
f 724 725 797 796
f 725 726 798 797
f 726 727 799 798
f 727 728 800 799
f 728 729 801 800
f 729 730 802 801
f 730 731 803 802
f 731 732 804 803
f 732 733 805 804
f 733 734 806 805
f 734 735 807 806
f 735 736 808 807
f 736 737 809 808
f 737 738 810 809
f 738 739 811 810
f 739 740 812 811
f 740 741 813 812
f 741 742 814 813
f 742 743 815 814
f 743 744 816 815
f 744 745 817 816
f 745 746 818 817
f 746 747 819 818
f 747 748 820 819
f 748 749 821 820
f 749 750 822 821
f 750 751 823 822
f 751 752 824 823
f 752 753 825 824
f 753 754 826 825
f 754 755 827 826
f 755 756 828 827
f 756 757 829 828
f 757 758 830 829
f 758 759 831 830
f 759 760 832 831
f 760 761 833 832
f 761 762 834 833
f 762 763 835 834
f 763 764 836 835
f 764 765 837 836
f 765 766 838 837
f 766 767 839 838
f 767 768 840 839
f 768 769 841 840
f 769 770 842 841
f 770 771 843 842
f 771 772 844 843
f 772 773 845 844
f 773 774 846 845
f 774 775 847 846
f 775 776 848 847
f 776 777 849 848
f 777 778 850 849
f 778 779 851 850
f 779 780 852 851
f 780 781 853 852
f 781 782 854 853
f 782 783 855 854
f 783 784 856 855
f 784 785 857 856
f 785 786 858 857
f 786 787 859 858
f 787 788 860 859
f 788 789 861 860
f 789 790 862 861
f 790 791 863 862
f 791 792 864 863
f 792 721 793 864
f 793 794 866 865
f 794 795 867 866
f 795 796 868 867
f 796 797 869 868
f 797 798 870 869
f 798 799 871 870
f 799 800 872 871
f 800 801 873 872
f 801 802 874 873
f 802 803 875 874
f 803 804 876 875
f 804 805 877 876
f 805 806 878 877
f 806 807 879 878
f 807 808 880 879
f 808 809 881 880
f 809 810 882 881
f 810 811 883 882
f 811 812 884 883
f 812 813 885 884
f 813 814 886 885
f 814 815 887 886
f 815 816 888 887
f 816 817 889 888
f 817 818 890 889
f 818 819 891 890
f 819 820 892 891
f 820 821 893 892
f 821 822 894 893
f 822 823 895 894
f 823 824 896 895
f 824 825 897 896
f 825 826 898 897
f 826 827 899 898
f 827 828 900 899
f 828 829 901 900
f 829 830 902 901
f 830 831 903 902
f 831 832 904 903
f 832 833 905 904
f 833 834 906 905
f 834 835 907 906
f 835 836 908 907
f 836 837 909 908
f 837 838 910 909
f 838 839 911 910
f 839 840 912 911
f 840 841 913 912
f 841 842 914 913
f 842 843 915 914
f 843 844 916 915
f 844 845 917 916
f 845 846 918 917
f 846 847 919 918
f 847 848 920 919
f 848 849 921 920
f 849 850 922 921
f 850 851 923 922
f 851 852 924 923
f 852 853 925 924
f 853 854 926 925
f 854 855 927 926
f 855 856 928 927
f 856 857 929 928
f 857 858 930 929
f 858 859 931 930
f 859 860 932 931
f 860 861 933 932
f 861 862 934 933
f 862 863 935 934
f 863 864 936 935
f 864 793 865 936
f 865 866 938 937
f 866 867 939 938
f 867 868 940 939
f 868 869 941 940
f 869 870 942 941
f 870 871 943 942
f 871 872 944 943
f 872 873 945 944
f 873 874 946 945
f 874 875 947 946
f 875 876 948 947
f 876 877 949 948
f 877 878 950 949
f 878 879 951 950
f 879 880 952 951
f 880 881 953 952
f 881 882 954 953
f 882 883 955 954
f 883 884 956 955
f 884 885 957 956
f 885 886 958 957
f 886 887 959 958
f 887 888 960 959
f 888 889 961 960
f 889 890 962 961
f 890 891 963 962
f 891 892 964 963
f 892 893 965 964
f 893 894 966 965
f 894 895 967 966
f 895 896 968 967
f 896 897 969 968
f 897 898 970 969
f 898 899 971 970
f 899 900 972 971
f 900 901 973 972
f 901 902 974 973
f 902 903 975 974
f 903 904 976 975
f 904 905 977 976
f 905 906 978 977
f 906 907 979 978
f 907 908 980 979
f 908 909 981 980
f 909 910 982 981
f 910 911 983 982
f 911 912 984 983
f 912 913 985 984
f 913 914 986 985
f 914 915 987 986
f 915 916 988 987
f 916 917 989 988
f 917 918 990 989
f 918 919 991 990
f 919 920 992 991
f 920 921 993 992
f 921 922 994 993
f 922 923 995 994
f 923 924 996 995
f 924 925 997 996
f 925 926 998 997
f 926 927 999 998
f 927 928 1000 999
f 928 929 1001 1000
f 929 930 1002 1001
f 930 931 1003 1002
f 931 932 1004 1003
f 932 933 1005 1004
f 933 934 1006 1005
f 934 935 1007 1006
f 935 936 1008 1007
f 936 865 937 1008
f 937 938 1010 1009
f 938 939 1011 1010
f 939 940 1012 1011
f 940 941 1013 1012
f 941 942 1014 1013
f 942 943 1015 1014
f 943 944 1016 1015
f 944 945 1017 1016
f 945 946 1018 1017
f 946 947 1019 1018
f 947 948 1020 1019
f 948 949 1021 1020
f 949 950 1022 1021
f 950 951 1023 1022
f 951 952 1024 1023
f 952 953 1025 1024
f 953 954 1026 1025
f 954 955 1027 1026
f 955 956 1028 1027
f 956 957 1029 1028
f 957 958 1030 1029
f 958 959 1031 1030
f 959 960 1032 1031
f 960 961 1033 1032
f 961 962 1034 1033
f 962 963 1035 1034
f 963 964 1036 1035
f 964 965 1037 1036
f 965 966 1038 1037
f 966 967 1039 1038
f 967 968 1040 1039
f 968 969 1041 1040
f 969 970 1042 1041
f 970 971 1043 1042
f 971 972 1044 1043
f 972 973 1045 1044
f 973 974 1046 1045
f 974 975 1047 1046
f 975 976 1048 1047
f 976 977 1049 1048
f 977 978 1050 1049
f 978 979 1051 1050
f 979 980 1052 1051
f 980 981 1053 1052
f 981 982 1054 1053
f 982 983 1055 1054
f 983 984 1056 1055
f 984 985 1057 1056
f 985 986 1058 1057
f 986 987 1059 1058
f 987 988 1060 1059
f 988 989 1061 1060
f 989 990 1062 1061
f 990 991 1063 1062
f 991 992 1064 1063
f 992 993 1065 1064
f 993 994 1066 1065
f 994 995 1067 1066
f 995 996 1068 1067
f 996 997 1069 1068
f 997 998 1070 1069
f 998 999 1071 1070
f 999 1000 1072 1071
f 1000 1001 1073 1072
f 1001 1002 1074 1073
f 1002 1003 1075 1074
f 1003 1004 1076 1075
f 1004 1005 1077 1076
f 1005 1006 1078 1077
f 1006 1007 1079 1078
f 1007 1008 1080 1079
f 1008 937 1009 1080
f 1009 1010 1082 1081
f 1010 1011 1083 1082
f 1011 1012 1084 1083
f 1012 1013 1085 1084
f 1013 1014 1086 1085
f 1014 1015 1087 1086
f 1015 1016 1088 1087
f 1016 1017 1089 1088
f 1017 1018 1090 1089
f 1018 1019 1091 1090
f 1019 1020 1092 1091
f 1020 1021 1093 1092
f 1021 1022 1094 1093
f 1022 1023 1095 1094
f 1023 1024 1096 1095
f 1024 1025 1097 1096
f 1025 1026 1098 1097
f 1026 1027 1099 1098
f 1027 1028 1100 1099
f 1028 1029 1101 1100
f 1029 1030 1102 1101
f 1030 1031 1103 1102
f 1031 1032 1104 1103
f 1032 1033 1105 1104
f 1033 1034 1106 1105
f 1034 1035 1107 1106
f 1035 1036 1108 1107
f 1036 1037 1109 1108
f 1037 1038 1110 1109
f 1038 1039 1111 1110
f 1039 1040 1112 1111
f 1040 1041 1113 1112
f 1041 1042 1114 1113
f 1042 1043 1115 1114
f 1043 1044 1116 1115
f 1044 1045 1117 1116
f 1045 1046 1118 1117
f 1046 1047 1119 1118
f 1047 1048 1120 1119
f 1048 1049 1121 1120
f 1049 1050 1122 1121
f 1050 1051 1123 1122
f 1051 1052 1124 1123
f 1052 1053 1125 1124
f 1053 1054 1126 1125
f 1054 1055 1127 1126
f 1055 1056 1128 1127
f 1056 1057 1129 1128
f 1057 1058 1130 1129
f 1058 1059 1131 1130
f 1059 1060 1132 1131
f 1060 1061 1133 1132
f 1061 1062 1134 1133
f 1062 1063 1135 1134
f 1063 1064 1136 1135
f 1064 1065 1137 1136
f 1065 1066 1138 1137
f 1066 1067 1139 1138
f 1067 1068 1140 1139
f 1068 1069 1141 1140
f 1069 1070 1142 1141
f 1070 1071 1143 1142
f 1071 1072 1144 1143
f 1072 1073 1145 1144
f 1073 1074 1146 1145
f 1074 1075 1147 1146
f 1075 1076 1148 1147
f 1076 1077 1149 1148
f 1077 1078 1150 1149
f 1078 1079 1151 1150
f 1079 1080 1152 1151
f 1080 1009 1081 1152
f 1081 1082 1154 1153
f 1082 1083 1155 1154
f 1083 1084 1156 1155
f 1084 1085 1157 1156
f 1085 1086 1158 1157
f 1086 1087 1159 1158
f 1087 1088 1160 1159
f 1088 1089 1161 1160
f 1089 1090 1162 1161
f 1090 1091 1163 1162
f 1091 1092 1164 1163
f 1092 1093 1165 1164
f 1093 1094 1166 1165
f 1094 1095 1167 1166
f 1095 1096 1168 1167
f 1096 1097 1169 1168
f 1097 1098 1170 1169
f 1098 1099 1171 1170
f 1099 1100 1172 1171
f 1100 1101 1173 1172
f 1101 1102 1174 1173
f 1102 1103 1175 1174
f 1103 1104 1176 1175
f 1104 1105 1177 1176
f 1105 1106 1178 1177
f 1106 1107 1179 1178
f 1107 1108 1180 1179
f 1108 1109 1181 1180
f 1109 1110 1182 1181
f 1110 1111 1183 1182
f 1111 1112 1184 1183
f 1112 1113 1185 1184
f 1113 1114 1186 1185
f 1114 1115 1187 1186
f 1115 1116 1188 1187
f 1116 1117 1189 1188
f 1117 1118 1190 1189
f 1118 1119 1191 1190
f 1119 1120 1192 1191
f 1120 1121 1193 1192
f 1121 1122 1194 1193
f 1122 1123 1195 1194
f 1123 1124 1196 1195
f 1124 1125 1197 1196
f 1125 1126 1198 1197
f 1126 1127 1199 1198
f 1127 1128 1200 1199
f 1128 1129 1201 1200
f 1129 1130 1202 1201
f 1130 1131 1203 1202
f 1131 1132 1204 1203
f 1132 1133 1205 1204
f 1133 1134 1206 1205
f 1134 1135 1207 1206
f 1135 1136 1208 1207
f 1136 1137 1209 1208
f 1137 1138 1210 1209
f 1138 1139 1211 1210
f 1139 1140 1212 1211
f 1140 1141 1213 1212
f 1141 1142 1214 1213
f 1142 1143 1215 1214
f 1143 1144 1216 1215
f 1144 1145 1217 1216
f 1145 1146 1218 1217
f 1146 1147 1219 1218
f 1147 1148 1220 1219
f 1148 1149 1221 1220
f 1149 1150 1222 1221
f 1150 1151 1223 1222
f 1151 1152 1224 1223
f 1152 1081 1153 1224
f 1153 1154 1226 1225
f 1154 1155 1227 1226
f 1155 1156 1228 1227
f 1156 1157 1229 1228
f 1157 1158 1230 1229
f 1158 1159 1231 1230
f 1159 1160 1232 1231
f 1160 1161 1233 1232
f 1161 1162 1234 1233
f 1162 1163 1235 1234
f 1163 1164 1236 1235
f 1164 1165 1237 1236
f 1165 1166 1238 1237
f 1166 1167 1239 1238
f 1167 1168 1240 1239
f 1168 1169 1241 1240
f 1169 1170 1242 1241
f 1170 1171 1243 1242
f 1171 1172 1244 1243
f 1172 1173 1245 1244
f 1173 1174 1246 1245
f 1174 1175 1247 1246
f 1175 1176 1248 1247
f 1176 1177 1249 1248
f 1177 1178 1250 1249
f 1178 1179 1251 1250
f 1179 1180 1252 1251
f 1180 1181 1253 1252
f 1181 1182 1254 1253
f 1182 1183 1255 1254
f 1183 1184 1256 1255
f 1184 1185 1257 1256
f 1185 1186 1258 1257
f 1186 1187 1259 1258
f 1187 1188 1260 1259
f 1188 1189 1261 1260
f 1189 1190 1262 1261
f 1190 1191 1263 1262
f 1191 1192 1264 1263
f 1192 1193 1265 1264
f 1193 1194 1266 1265
f 1194 1195 1267 1266
f 1195 1196 1268 1267
f 1196 1197 1269 1268
f 1197 1198 1270 1269
f 1198 1199 1271 1270
f 1199 1200 1272 1271
f 1200 1201 1273 1272
f 1201 1202 1274 1273
f 1202 1203 1275 1274
f 1203 1204 1276 1275
f 1204 1205 1277 1276
f 1205 1206 1278 1277
f 1206 1207 1279 1278
f 1207 1208 1280 1279
f 1208 1209 1281 1280
f 1209 1210 1282 1281
f 1210 1211 1283 1282
f 1211 1212 1284 1283
f 1212 1213 1285 1284
f 1213 1214 1286 1285
f 1214 1215 1287 1286
f 1215 1216 1288 1287
f 1216 1217 1289 1288
f 1217 1218 1290 1289
f 1218 1219 1291 1290
f 1219 1220 1292 1291
f 1220 1221 1293 1292
f 1221 1222 1294 1293
f 1222 1223 1295 1294
f 1223 1224 1296 1295
f 1224 1153 1225 1296
